<svg version="1.2" baseProfile="tiny-ps" xmlns="http://www.w3.org/2000/svg" viewBox="0 0 200 177" width="200" height="177">
	<title>aboutme-svg</title>
	<style>
		tspan { white-space:pre }
		.shp0 { fill: #f2f2f2 } 
		.shp1 { fill: #3f3d56 } 
		.shp2 { fill: #eba5ce } 
		.shp3 { fill: none;stroke: #3f3d56;stroke-width: 0.488 } 
		.shp4 { opacity: 0.102;fill: #000000 } 
		.shp5 { fill: #2f2e41 } 
		.shp6 { fill: #ffb9b9 } 
		.shp7 { opacity: 0.051;fill: #000000 } 
		.shp8 { fill: #3f3d56;stroke: #eba5ce;stroke-width: 0.244 } 
		.shp9 { fill: #000000 } 
	</style>
	<path id="Layer" class="shp0" d="M103.94 170.81C56.69 170.81 18.5 132.63 18.5 85.4C18.5 38.18 56.69 0 103.94 0C151.19 0 189.38 38.18 189.38 85.4C189.38 132.63 151.19 170.81 103.94 170.81Z" />
	<path id="Layer" class="shp1" d="M48.64 145.74C43.13 154.18 44.64 164.91 44.64 164.91C44.64 164.91 55.07 161.96 60.58 153.53C66.08 145.09 64.57 134.36 64.57 134.36C64.57 134.36 54.14 137.31 48.64 145.74Z" />
	<path id="Layer" class="shp2" d="M44.61 164.81C44.61 164.81 44.48 164.79 44.23 164.74C44.04 164.7 43.77 164.64 43.43 164.57C40.48 163.87 32.62 161.51 27.48 155.32C21.05 147.57 21.32 136.74 21.32 136.74C21.32 136.74 31.15 138.33 37.63 145.3C37.91 145.6 38.19 145.91 38.45 146.23C44.05 152.97 44.57 162.05 44.61 164.29C44.62 164.63 44.61 164.81 44.61 164.81Z" />
	<path id="Layer" class="shp3" d="M40.65 145.74C46.15 154.18 44.64 164.91 44.64 164.91C44.64 164.91 34.21 161.96 28.71 153.53C23.2 145.09 24.71 134.36 24.71 134.36C24.71 134.36 35.14 137.31 40.65 145.74Z" />
	<path id="Layer" class="shp4" d="M44.61 164.29C44.47 164.47 44.34 164.62 44.23 164.74C44 165.01 43.87 165.15 43.87 165.15C43.87 165.15 43.71 164.95 43.43 164.57C41.95 162.5 37.17 155.13 37.54 146.62C37.55 146.17 37.59 145.73 37.63 145.3C37.91 145.6 38.19 145.91 38.45 146.23C44.05 152.97 44.57 162.05 44.61 164.29Z" />
	<path id="Layer" class="shp2" d="M52.77 147.24C52.34 157.3 44.86 165.15 44.86 165.15C44.86 165.15 38.1 156.68 38.53 146.62C38.97 136.56 46.44 128.71 46.44 128.71C46.44 128.71 53.21 137.17 52.77 147.24Z" />
	<path id="Layer" class="shp3" d="M44.86 164.86L46.51 129.12" />
	<path id="Layer" class="shp1" d="M100 176.8C44.7 176.8 0 173.15 0 168.64C0 164.13 44.7 160.48 100 160.48C155.3 160.48 200 164.13 200 168.64C200 173.15 155.3 176.8 100 176.8Z" />
	<path id="Layer" class="shp5" d="M115.89 70.74C113.4 71.58 111.14 73.55 110.63 76.13C110.39 77.32 110.54 78.57 110.34 79.77C109.88 82.56 107.69 84.69 105.67 86.67C103.65 88.65 101.56 90.95 101.41 93.77C101.25 96.86 103.49 99.76 103.11 102.83C102.65 106.4 98.88 108.72 97.95 112.19C97.33 114.51 98.09 117.01 99.35 119.06C101.74 122.96 105.83 125.61 110.18 127.03C114.53 128.45 119.17 128.75 123.75 128.8C129.32 128.86 135.38 128.38 139.57 124.7C140.16 124.18 140.7 123.6 141.18 122.97C141.67 122.35 142.09 121.68 142.45 120.98C142.81 120.27 143.1 119.54 143.33 118.78C143.55 118.02 143.7 117.24 143.77 116.45C144.17 112.19 142.39 107.79 143.62 103.69C144.39 101.11 146.33 98.75 146.04 96.08C145.76 93.46 143.47 91.6 141.9 89.49C140.44 87.51 139.55 85.18 138.68 82.88L135.69 75.01C135.11 73.47 134.46 71.84 133.16 70.83C130.71 68.93 126.78 69.3 123.92 69.69C121.27 70.06 118.44 69.88 115.89 70.74Z" />
	<path id="Layer" class="shp6" d="M116.83 93.65C116.83 93.65 118.15 97.95 108.24 102.9C98.32 107.86 109.23 113.14 109.23 113.14L120.79 115.78C120.79 115.78 132.69 114.13 134.01 112.15C135.33 110.17 137.64 103.56 136.98 102.57C136.86 102.39 136.73 102.22 136.6 102.05C136.47 101.88 136.34 101.71 136.2 101.55C136.06 101.38 135.92 101.22 135.77 101.06C135.63 100.9 135.48 100.74 135.33 100.59C135.18 100.44 127.4 99.27 127.73 95.63C128.06 92 116.83 93.65 116.83 93.65Z" />
	<path id="Layer" class="shp4" d="M116.83 93.65C116.83 93.65 118.15 97.95 108.24 102.9C98.32 107.86 109.23 113.14 109.23 113.14L120.79 115.78C120.79 115.78 132.69 114.13 134.01 112.15C135.33 110.17 137.64 103.56 136.98 102.57C136.86 102.39 136.73 102.22 136.6 102.05C136.47 101.88 136.34 101.71 136.2 101.55C136.06 101.38 135.92 101.22 135.77 101.06C135.63 100.9 135.48 100.74 135.33 100.59C135.18 100.44 127.4 99.27 127.73 95.63C128.06 92 116.83 93.65 116.83 93.65Z" />
	<path id="Layer" class="shp6" d="M123.27 100.42C117.42 100.42 112.7 95.7 112.7 89.85C112.7 84.01 117.42 79.29 123.27 79.29C129.12 79.29 133.84 84.01 133.84 89.85C133.84 95.7 129.12 100.42 123.27 100.42Z" />
	<path id="Layer" class="shp2" d="M122.11 112.15C122.11 112.15 109.38 111.22 109.14 102.44C109.14 102.44 104.6 101.91 103.28 103.23C101.96 104.55 97.66 105.54 97.66 108.85C97.66 112.15 104.93 122.06 104.93 122.06C104.93 122.06 108.9 135.27 107.24 137.58C105.59 139.89 105.26 145.84 105.26 145.84C105.26 145.84 121.78 144.52 124.43 145.84C127.07 147.16 137.64 147.16 138.3 145.84C138.97 144.52 137.64 128 137.64 128C137.64 128 140.62 124.04 139.96 119.42L147.89 110.17C147.89 110.17 144.91 101.25 140.29 101.25C140.29 101.25 134.01 99.6 133.84 100.42C133.68 101.25 136.98 110.5 122.11 112.15Z" />
	<path id="Layer" class="shp6" d="M92.37 141.22C92.37 141.22 95.35 145.84 102.95 146.83C110.55 147.82 111.87 145.18 111.21 144.52C110.55 143.86 102.62 140.89 102.62 140.89L97.99 137.25L92.37 141.22Z" />
	<path id="Layer" class="shp6" d="M146.57 137.25L137.97 142.21C137.97 142.21 126.74 141.55 131.04 144.85C135.33 148.15 143.26 146.83 143.26 146.83L150.86 143.2L146.57 137.25Z" />
	<path id="Layer" class="shp5" d="M103.61 145.84C103.61 145.84 95.68 165.33 105.26 168.3C114.84 171.27 141.28 170.61 147.23 166.65C153.17 162.68 154.83 157.4 153.84 155.75C152.84 154.1 146.24 149.47 141.61 149.14C136.98 148.81 103.61 145.84 103.61 145.84Z" />
	<path id="Layer" class="shp7" d="M103.61 145.84C103.61 145.84 95.68 165.33 105.26 168.3C114.84 171.27 141.28 170.61 147.23 166.65C153.17 162.68 154.83 157.4 153.84 155.75C152.84 154.1 146.24 149.47 141.61 149.14C136.98 148.81 103.61 145.84 103.61 145.84Z" />
	<path id="Layer" class="shp5" d="M141.04 147.05C141.04 147.05 169.04 136.92 168.7 149.14C168.37 161.36 150.86 164.67 150.86 164.67L145.57 165.33L116.5 166.32C116.5 166.32 117.49 161.03 115.17 160.37C115.17 160.37 122.77 158.39 123.1 158.06C123.44 157.73 142.27 151.12 143.59 150.79C144.91 150.46 148.88 147.82 151.85 148.15C151.85 148.15 155.16 145.51 158.79 146.17L148.55 146.83L141.04 147.05Z" />
	<path id="Layer" class="shp4" d="M141.04 147.05C141.04 147.05 169.04 136.92 168.7 149.14C168.37 161.36 150.86 164.67 150.86 164.67L145.57 165.33L116.5 166.32C116.5 166.32 117.49 161.03 115.17 160.37C115.17 160.37 122.77 158.39 123.1 158.06C123.44 157.73 142.27 151.12 143.59 150.79C144.91 150.46 148.88 147.82 151.85 148.15C151.85 148.15 155.16 145.51 158.79 146.17L148.55 146.83L141.04 147.05Z" />
	<path id="Layer" class="shp5" d="M136.1 148.69L139.63 156.74L161.1 149.14L162.76 144.85L157.14 143.86L145.85 145.84L140.95 147.16L136.1 148.69L136.1 148.69Z" />
	<path id="Layer" class="shp4" d="M136.1 148.69L139.63 156.74L161.1 149.14L162.76 144.85L157.14 143.86L145.85 145.84L140.95 147.16L136.1 148.69L136.1 148.69Z" />
	<path id="Layer" class="shp5" d="M90.39 158.39C90.39 158.39 96.67 166.32 103.94 168.3C111.21 170.28 115.17 167.64 115.17 167.64L112.86 158.39L111.87 152.45L107.57 149.47L98.98 145.51L88.74 142.21C88.74 142.21 84.44 141.55 84.44 142.21C84.44 142.87 88.41 152.78 88.41 152.78L90.39 158.39Z" />
	<path id="Layer" class="shp0" d="M97.99 162.68C97.99 162.68 99.31 172.26 100.97 172.92C102.62 173.58 107.57 172.26 108.9 171.6C110.22 170.94 114.71 167.89 114.71 167.89C114.71 167.89 98.98 162.02 97.99 162.68Z" />
	<path id="Layer" class="shp6" d="M128.06 163.68L134.34 164.67L133.68 172.26L124.92 170.14L128.06 163.68L128.06 163.68Z" />
	<path id="Layer" class="shp0" d="M132 165.79C132 165.79 129.05 169.29 132.03 171.27L134.01 172.92C134.01 172.92 140.62 174.25 141.28 174.91C141.94 175.57 144.58 173.91 144.58 173.91C144.58 173.91 144.91 164.01 144.58 163.35C144.25 162.68 140.29 162.02 139.96 162.68C139.63 163.35 135.66 164.34 133.35 163.68L132 165.79Z" />
	<path id="Layer" class="shp5" d="M105.59 148.15C105.59 148.15 82.46 134.61 78.83 139.56C75.19 144.52 71.23 151.45 81.8 156.74C92.37 162.02 125.42 172.92 125.42 172.92C125.42 172.92 130.37 165.33 130.37 163.35C130.37 163.35 112.86 155.42 109.89 154.76C106.91 154.1 95.02 146.5 93.37 145.84C91.71 145.18 89.4 143.2 89.4 143.2L105.59 148.15Z" />
	<path id="Layer" class="shp2" d="M98.98 107.2L97.66 108.19C97.66 108.19 94.69 115.78 94.36 120.08C94.03 124.37 90.06 137.58 90.39 139.23C90.72 140.89 91.05 142.21 93.04 143.86C93.04 143.86 95.68 137.91 100.31 138.9L105.92 118.43L98.98 107.2Z" />
	<path id="Layer" class="shp2" d="M145.24 107.2L147.89 110.17C147.89 110.17 149.54 114.13 149.54 115.12C149.54 116.11 152.84 130.65 153.17 131.31C153.5 131.97 154.83 140.22 153.17 142.21C151.52 144.19 148.55 145.51 148.55 145.51C148.55 145.51 150.53 138.57 144.25 138.24L144.91 135.6L138.97 115.78L145.24 107.2Z" />
	<path id="Layer" class="shp1" d="M99.64 129.94L99.64 147.33C99.64 147.88 99.75 148.42 99.96 148.92C100.16 149.42 100.47 149.88 100.85 150.27C101.23 150.66 101.68 150.97 102.18 151.18C102.69 151.39 103.22 151.51 103.77 151.52L140.17 152.05C140.71 152.06 141.24 151.97 141.75 151.77C142.25 151.57 142.71 151.28 143.11 150.91C143.5 150.54 143.82 150.09 144.04 149.6C144.26 149.11 144.39 148.57 144.41 148.03L145.08 130.63C145.1 130.08 145.01 129.52 144.81 129C144.62 128.48 144.32 128 143.93 127.59C143.55 127.19 143.09 126.87 142.58 126.64C142.07 126.42 141.52 126.3 140.96 126.29L103.89 125.75C103.33 125.75 102.78 125.85 102.27 126.05C101.75 126.26 101.29 126.57 100.89 126.96C100.5 127.35 100.18 127.81 99.97 128.32C99.75 128.83 99.64 129.38 99.64 129.94L99.64 129.94Z" />
	<path id="Layer" class="shp5" d="M123.89 89.52C117.6 89.52 112.51 86.78 112.51 83.39C112.51 80 117.6 77.26 123.89 77.26C130.18 77.26 135.27 80 135.27 83.39C135.27 86.78 130.18 89.52 123.89 89.52Z" />
	<path id="Layer" class="shp0" d="M121.95 141.71C120.49 141.71 119.31 140.53 119.31 139.07C119.31 137.61 120.49 136.43 121.95 136.43C123.41 136.43 124.59 137.61 124.59 139.07C124.59 140.53 123.41 141.71 121.95 141.71Z" />
	<path id="Layer" class="shp5" d="M193.9 138.53L193.9 168.71C193.9 169.23 193.62 169.3 193.17 169.55C191.64 170.4 187.86 171.91 183.34 169.52C182.87 169.27 182.58 169.19 182.58 168.67L182.58 138.73C182.58 138.73 188.34 141.05 193.9 138.53Z" />
	<path id="Layer" class="shp8" d="M188.24 139.71C185.11 139.71 182.58 139.18 182.58 138.51C182.58 137.85 185.11 137.31 188.24 137.31C191.37 137.31 193.9 137.85 193.9 138.51C193.9 139.18 191.37 139.71 188.24 139.71Z" />
	<g id="Layer" style="opacity: 0.8">
		<path id="Layer" class="shp9" d="M193.38 151.19C193.31 151.19 193.26 151.13 193.26 151.06C193.26 150.99 193.31 150.94 193.38 150.94C193.45 150.94 193.51 150.99 193.51 151.06C193.51 151.13 193.45 151.19 193.38 151.19Z" />
		<path id="Layer" class="shp9" d="M192.74 151.37C192.67 151.37 192.61 151.31 192.61 151.24C192.61 151.17 192.67 151.12 192.74 151.12C192.81 151.12 192.87 151.17 192.87 151.24C192.87 151.31 192.81 151.37 192.74 151.37Z" />
		<path id="Layer" class="shp9" d="M191.94 151.62C191.87 151.62 191.82 151.57 191.82 151.5C191.82 151.43 191.87 151.37 191.94 151.37C192.01 151.37 192.07 151.43 192.07 151.5C192.07 151.57 192.01 151.62 191.94 151.62Z" />
		<path id="Layer" class="shp9" d="M190.52 151.93C190.45 151.93 190.39 151.87 190.39 151.8C190.39 151.73 190.45 151.68 190.52 151.68C190.59 151.68 190.64 151.73 190.64 151.8C190.64 151.87 190.59 151.93 190.52 151.93Z" />
		<path id="Layer" class="shp9" d="M189.01 152.11C188.94 152.11 188.88 152.06 188.88 151.99C188.88 151.92 188.94 151.86 189.01 151.86C189.08 151.86 189.14 151.92 189.14 151.99C189.14 152.06 189.08 152.11 189.01 152.11Z" />
		<path id="Layer" class="shp9" d="M187.45 152.19C187.38 152.19 187.33 152.13 187.33 152.06C187.33 151.99 187.38 151.93 187.45 151.93C187.52 151.93 187.58 151.99 187.58 152.06C187.58 152.13 187.52 152.19 187.45 152.19Z" />
		<path id="Layer" class="shp9" d="M185.22 151.88C185.15 151.88 185.09 151.82 185.09 151.75C185.09 151.68 185.15 151.62 185.22 151.62C185.29 151.62 185.34 151.68 185.34 151.75C185.34 151.82 185.29 151.88 185.22 151.88Z" />
		<path id="Layer" class="shp9" d="M185.96 152.06C185.89 152.06 185.83 152 185.83 151.93C185.83 151.86 185.89 151.8 185.96 151.8C186.03 151.8 186.08 151.86 186.08 151.93C186.08 152 186.03 152.06 185.96 152.06Z" />
		<path id="Layer" class="shp9" d="M183.83 151.62C183.76 151.62 183.7 151.57 183.7 151.5C183.7 151.43 183.76 151.37 183.83 151.37C183.9 151.37 183.96 151.43 183.96 151.5C183.96 151.57 183.9 151.62 183.83 151.62Z" />
		<path id="Layer" class="shp9" d="M184.5 151.75C184.43 151.75 184.37 151.69 184.37 151.62C184.37 151.55 184.43 151.5 184.5 151.5C184.57 151.5 184.62 151.55 184.62 151.62C184.62 151.69 184.57 151.75 184.5 151.75Z" />
		<path id="Layer" class="shp9" d="M183.1 151.37C183.03 151.37 182.97 151.31 182.97 151.24C182.97 151.17 183.03 151.12 183.1 151.12C183.17 151.12 183.23 151.17 183.23 151.24C183.23 151.31 183.17 151.37 183.1 151.37Z" />
		<path id="Layer" class="shp9" d="M191.22 151.8C191.14 151.8 191.09 151.75 191.09 151.68C191.09 151.61 191.14 151.55 191.22 151.55C191.29 151.55 191.34 151.61 191.34 151.68C191.34 151.75 191.29 151.8 191.22 151.8Z" />
		<path id="Layer" class="shp9" d="M189.74 152.06C189.67 152.06 189.62 152 189.62 151.93C189.62 151.86 189.67 151.8 189.74 151.8C189.81 151.8 189.87 151.86 189.87 151.93C189.87 152 189.81 152.06 189.74 152.06Z" />
		<path id="Layer" class="shp9" d="M188.14 152.19C188.07 152.19 188.02 152.13 188.02 152.06C188.02 151.99 188.07 151.93 188.14 151.93C188.21 151.93 188.27 151.99 188.27 152.06C188.27 152.13 188.21 152.19 188.14 152.19Z" />
		<path id="Layer" class="shp9" d="M186.69 152.19C186.62 152.19 186.56 152.13 186.56 152.06C186.56 151.99 186.62 151.93 186.69 151.93C186.76 151.93 186.82 151.99 186.82 152.06C186.82 152.13 186.76 152.19 186.69 152.19Z" />
	</g>
	<g id="Layer" style="opacity: 0.8">
		<path id="Layer" class="shp9" d="M193.38 151.81C193.31 151.81 193.26 151.76 193.26 151.69C193.26 151.62 193.31 151.56 193.38 151.56C193.45 151.56 193.51 151.62 193.51 151.69C193.51 151.76 193.45 151.81 193.38 151.81Z" />
		<path id="Layer" class="shp9" d="M192.74 151.99C192.67 151.99 192.61 151.94 192.61 151.87C192.61 151.8 192.67 151.74 192.74 151.74C192.81 151.74 192.87 151.8 192.87 151.87C192.87 151.94 192.81 151.99 192.74 151.99Z" />
		<path id="Layer" class="shp9" d="M191.94 152.25C191.87 152.25 191.82 152.19 191.82 152.12C191.82 152.05 191.87 151.99 191.94 151.99C192.01 151.99 192.07 152.05 192.07 152.12C192.07 152.19 192.01 152.25 191.94 152.25Z" />
		<path id="Layer" class="shp9" d="M190.52 152.56C190.45 152.56 190.39 152.5 190.39 152.43C190.39 152.36 190.45 152.3 190.52 152.3C190.59 152.3 190.64 152.36 190.64 152.43C190.64 152.5 190.59 152.56 190.52 152.56Z" />
		<path id="Layer" class="shp9" d="M189.01 152.74C188.94 152.74 188.88 152.68 188.88 152.61C188.88 152.54 188.94 152.48 189.01 152.48C189.08 152.48 189.14 152.54 189.14 152.61C189.14 152.68 189.08 152.74 189.01 152.74Z" />
		<path id="Layer" class="shp9" d="M187.45 152.81C187.38 152.81 187.33 152.75 187.33 152.68C187.33 152.61 187.38 152.56 187.45 152.56C187.52 152.56 187.58 152.61 187.58 152.68C187.58 152.75 187.52 152.81 187.45 152.81Z" />
		<path id="Layer" class="shp9" d="M185.22 152.5C185.15 152.5 185.09 152.45 185.09 152.38C185.09 152.31 185.15 152.25 185.22 152.25C185.29 152.25 185.34 152.31 185.34 152.38C185.34 152.45 185.29 152.5 185.22 152.5Z" />
		<path id="Layer" class="shp9" d="M185.96 152.68C185.89 152.68 185.83 152.63 185.83 152.56C185.83 152.49 185.89 152.43 185.96 152.43C186.03 152.43 186.08 152.49 186.08 152.56C186.08 152.63 186.03 152.68 185.96 152.68Z" />
		<path id="Layer" class="shp9" d="M183.83 152.25C183.76 152.25 183.7 152.19 183.7 152.12C183.7 152.05 183.76 151.99 183.83 151.99C183.9 151.99 183.96 152.05 183.96 152.12C183.96 152.19 183.9 152.25 183.83 152.25Z" />
		<path id="Layer" class="shp9" d="M184.5 152.38C184.43 152.38 184.37 152.32 184.37 152.25C184.37 152.18 184.43 152.12 184.5 152.12C184.57 152.12 184.62 152.18 184.62 152.25C184.62 152.32 184.57 152.38 184.5 152.38Z" />
		<path id="Layer" class="shp9" d="M183.1 151.99C183.03 151.99 182.97 151.94 182.97 151.87C182.97 151.8 183.03 151.74 183.1 151.74C183.17 151.74 183.23 151.8 183.23 151.87C183.23 151.94 183.17 151.99 183.1 151.99Z" />
		<path id="Layer" class="shp9" d="M191.22 152.43C191.14 152.43 191.09 152.37 191.09 152.3C191.09 152.23 191.14 152.18 191.22 152.18C191.29 152.18 191.34 152.23 191.34 152.3C191.34 152.37 191.29 152.43 191.22 152.43Z" />
		<path id="Layer" class="shp9" d="M189.74 152.68C189.67 152.68 189.62 152.63 189.62 152.56C189.62 152.49 189.67 152.43 189.74 152.43C189.81 152.43 189.87 152.49 189.87 152.56C189.87 152.63 189.81 152.68 189.74 152.68Z" />
		<path id="Layer" class="shp9" d="M188.14 152.81C188.07 152.81 188.02 152.75 188.02 152.68C188.02 152.61 188.07 152.56 188.14 152.56C188.21 152.56 188.27 152.61 188.27 152.68C188.27 152.75 188.21 152.81 188.14 152.81Z" />
		<path id="Layer" class="shp9" d="M186.69 152.81C186.62 152.81 186.56 152.75 186.56 152.68C186.56 152.61 186.62 152.56 186.69 152.56C186.76 152.56 186.82 152.61 186.82 152.68C186.82 152.75 186.76 152.81 186.69 152.81Z" />
	</g>
	<g id="Layer" style="opacity: 0.8">
		<path id="Layer" class="shp9" d="M193.38 152.44C193.31 152.44 193.26 152.38 193.26 152.31C193.26 152.24 193.31 152.19 193.38 152.19C193.45 152.19 193.51 152.24 193.51 152.31C193.51 152.38 193.45 152.44 193.38 152.44Z" />
		<path id="Layer" class="shp9" d="M192.74 152.62C192.67 152.62 192.61 152.56 192.61 152.49C192.61 152.42 192.67 152.37 192.74 152.37C192.81 152.37 192.87 152.42 192.87 152.49C192.87 152.56 192.81 152.62 192.74 152.62Z" />
		<path id="Layer" class="shp9" d="M191.94 152.87C191.87 152.87 191.82 152.82 191.82 152.75C191.82 152.68 191.87 152.62 191.94 152.62C192.01 152.62 192.07 152.68 192.07 152.75C192.07 152.82 192.01 152.87 191.94 152.87Z" />
		<path id="Layer" class="shp9" d="M190.52 153.18C190.45 153.18 190.39 153.12 190.39 153.05C190.39 152.98 190.45 152.93 190.52 152.93C190.59 152.93 190.64 152.98 190.64 153.05C190.64 153.12 190.59 153.18 190.52 153.18Z" />
		<path id="Layer" class="shp9" d="M189.01 153.36C188.94 153.36 188.88 153.31 188.88 153.24C188.88 153.17 188.94 153.11 189.01 153.11C189.08 153.11 189.14 153.17 189.14 153.24C189.14 153.31 189.08 153.36 189.01 153.36Z" />
		<path id="Layer" class="shp9" d="M187.45 153.43C187.38 153.43 187.33 153.38 187.33 153.31C187.33 153.24 187.38 153.18 187.45 153.18C187.52 153.18 187.58 153.24 187.58 153.31C187.58 153.38 187.52 153.43 187.45 153.43Z" />
		<path id="Layer" class="shp9" d="M185.22 153.13C185.15 153.13 185.09 153.07 185.09 153C185.09 152.93 185.15 152.87 185.22 152.87C185.29 152.87 185.34 152.93 185.34 153C185.34 153.07 185.29 153.13 185.22 153.13Z" />
		<path id="Layer" class="shp9" d="M185.96 153.31C185.89 153.31 185.83 153.25 185.83 153.18C185.83 153.11 185.89 153.05 185.96 153.05C186.03 153.05 186.08 153.11 186.08 153.18C186.08 153.25 186.03 153.31 185.96 153.31Z" />
		<path id="Layer" class="shp9" d="M183.83 152.87C183.76 152.87 183.7 152.82 183.7 152.75C183.7 152.68 183.76 152.62 183.83 152.62C183.9 152.62 183.96 152.68 183.96 152.75C183.96 152.82 183.9 152.87 183.83 152.87Z" />
		<path id="Layer" class="shp9" d="M184.5 153C184.43 153 184.37 152.94 184.37 152.87C184.37 152.8 184.43 152.75 184.5 152.75C184.57 152.75 184.62 152.8 184.62 152.87C184.62 152.94 184.57 153 184.5 153Z" />
		<path id="Layer" class="shp9" d="M183.1 152.62C183.03 152.62 182.97 152.56 182.97 152.49C182.97 152.42 183.03 152.37 183.1 152.37C183.17 152.37 183.23 152.42 183.23 152.49C183.23 152.56 183.17 152.62 183.1 152.62Z" />
		<path id="Layer" class="shp9" d="M191.22 153.05C191.14 153.05 191.09 153 191.09 152.93C191.09 152.86 191.14 152.8 191.22 152.8C191.29 152.8 191.34 152.86 191.34 152.93C191.34 153 191.29 153.05 191.22 153.05Z" />
		<path id="Layer" class="shp9" d="M189.74 153.31C189.67 153.31 189.62 153.25 189.62 153.18C189.62 153.11 189.67 153.05 189.74 153.05C189.81 153.05 189.87 153.11 189.87 153.18C189.87 153.25 189.81 153.31 189.74 153.31Z" />
		<path id="Layer" class="shp9" d="M188.14 153.43C188.07 153.43 188.02 153.38 188.02 153.31C188.02 153.24 188.07 153.18 188.14 153.18C188.21 153.18 188.27 153.24 188.27 153.31C188.27 153.38 188.21 153.43 188.14 153.43Z" />
		<path id="Layer" class="shp9" d="M186.69 153.43C186.62 153.43 186.56 153.38 186.56 153.31C186.56 153.24 186.62 153.18 186.69 153.18C186.76 153.18 186.82 153.24 186.82 153.31C186.82 153.38 186.76 153.43 186.69 153.43Z" />
	</g>
	<g id="Layer" style="opacity: 0.8">
		<path id="Layer" class="shp9" d="M193.38 153.06C193.31 153.06 193.26 153.01 193.26 152.94C193.26 152.87 193.31 152.81 193.38 152.81C193.45 152.81 193.51 152.87 193.51 152.94C193.51 153.01 193.45 153.06 193.38 153.06Z" />
		<path id="Layer" class="shp9" d="M192.74 153.24C192.67 153.24 192.61 153.19 192.61 153.12C192.61 153.05 192.67 152.99 192.74 152.99C192.81 152.99 192.87 153.05 192.87 153.12C192.87 153.19 192.81 153.24 192.74 153.24Z" />
		<path id="Layer" class="shp9" d="M191.94 153.5C191.87 153.5 191.82 153.44 191.82 153.37C191.82 153.3 191.87 153.24 191.94 153.24C192.01 153.24 192.07 153.3 192.07 153.37C192.07 153.44 192.01 153.5 191.94 153.5Z" />
		<path id="Layer" class="shp9" d="M190.52 153.8C190.45 153.8 190.39 153.75 190.39 153.68C190.39 153.61 190.45 153.55 190.52 153.55C190.59 153.55 190.64 153.61 190.64 153.68C190.64 153.75 190.59 153.8 190.52 153.8Z" />
		<path id="Layer" class="shp9" d="M189.01 153.99C188.94 153.99 188.88 153.93 188.88 153.86C188.88 153.79 188.94 153.73 189.01 153.73C189.08 153.73 189.14 153.79 189.14 153.86C189.14 153.93 189.08 153.99 189.01 153.99Z" />
		<path id="Layer" class="shp9" d="M187.45 154.06C187.38 154.06 187.33 154 187.33 153.93C187.33 153.86 187.38 153.8 187.45 153.8C187.52 153.8 187.58 153.86 187.58 153.93C187.58 154 187.52 154.06 187.45 154.06Z" />
		<path id="Layer" class="shp9" d="M185.22 153.75C185.15 153.75 185.09 153.69 185.09 153.62C185.09 153.55 185.15 153.5 185.22 153.5C185.29 153.5 185.34 153.55 185.34 153.62C185.34 153.69 185.29 153.75 185.22 153.75Z" />
		<path id="Layer" class="shp9" d="M185.96 153.93C185.89 153.93 185.83 153.87 185.83 153.8C185.83 153.73 185.89 153.68 185.96 153.68C186.03 153.68 186.08 153.73 186.08 153.8C186.08 153.87 186.03 153.93 185.96 153.93Z" />
		<path id="Layer" class="shp9" d="M183.83 153.5C183.76 153.5 183.7 153.44 183.7 153.37C183.7 153.3 183.76 153.24 183.83 153.24C183.9 153.24 183.96 153.3 183.96 153.37C183.96 153.44 183.9 153.5 183.83 153.5Z" />
		<path id="Layer" class="shp9" d="M184.5 153.62C184.43 153.62 184.37 153.57 184.37 153.5C184.37 153.43 184.43 153.37 184.5 153.37C184.57 153.37 184.62 153.43 184.62 153.5C184.62 153.57 184.57 153.62 184.5 153.62Z" />
		<path id="Layer" class="shp9" d="M183.1 153.24C183.03 153.24 182.97 153.19 182.97 153.12C182.97 153.05 183.03 152.99 183.1 152.99C183.17 152.99 183.23 153.05 183.23 153.12C183.23 153.19 183.17 153.24 183.1 153.24Z" />
		<path id="Layer" class="shp9" d="M191.22 153.68C191.14 153.68 191.09 153.62 191.09 153.55C191.09 153.48 191.14 153.42 191.22 153.42C191.29 153.42 191.34 153.48 191.34 153.55C191.34 153.62 191.29 153.68 191.22 153.68Z" />
		<path id="Layer" class="shp9" d="M189.74 153.93C189.67 153.93 189.62 153.87 189.62 153.8C189.62 153.73 189.67 153.68 189.74 153.68C189.81 153.68 189.87 153.73 189.87 153.8C189.87 153.87 189.81 153.93 189.74 153.93Z" />
		<path id="Layer" class="shp9" d="M188.14 154.06C188.07 154.06 188.02 154 188.02 153.93C188.02 153.86 188.07 153.8 188.14 153.8C188.21 153.8 188.27 153.86 188.27 153.93C188.27 154 188.21 154.06 188.14 154.06Z" />
		<path id="Layer" class="shp9" d="M186.69 154.06C186.62 154.06 186.56 154 186.56 153.93C186.56 153.86 186.62 153.8 186.69 153.8C186.76 153.8 186.82 153.86 186.82 153.93C186.82 154 186.76 154.06 186.69 154.06Z" />
	</g>
	<g id="Layer" style="opacity: 0.8">
		<path id="Layer" class="shp9" d="M193.38 153.69C193.31 153.69 193.26 153.63 193.26 153.56C193.26 153.49 193.31 153.43 193.38 153.43C193.45 153.43 193.51 153.49 193.51 153.56C193.51 153.63 193.45 153.69 193.38 153.69Z" />
		<path id="Layer" class="shp9" d="M192.74 153.87C192.67 153.87 192.61 153.81 192.61 153.74C192.61 153.67 192.67 153.61 192.74 153.61C192.81 153.61 192.87 153.67 192.87 153.74C192.87 153.81 192.81 153.87 192.74 153.87Z" />
		<path id="Layer" class="shp9" d="M191.94 154.12C191.87 154.12 191.82 154.06 191.82 153.99C191.82 153.92 191.87 153.87 191.94 153.87C192.01 153.87 192.07 153.92 192.07 153.99C192.07 154.06 192.01 154.12 191.94 154.12Z" />
		<path id="Layer" class="shp9" d="M190.52 154.43C190.45 154.43 190.39 154.37 190.39 154.3C190.39 154.23 190.45 154.18 190.52 154.18C190.59 154.18 190.64 154.23 190.64 154.3C190.64 154.37 190.59 154.43 190.52 154.43Z" />
		<path id="Layer" class="shp9" d="M189.01 154.61C188.94 154.61 188.88 154.55 188.88 154.48C188.88 154.41 188.94 154.36 189.01 154.36C189.08 154.36 189.14 154.41 189.14 154.48C189.14 154.55 189.08 154.61 189.01 154.61Z" />
		<path id="Layer" class="shp9" d="M187.45 154.68C187.38 154.68 187.33 154.63 187.33 154.56C187.33 154.49 187.38 154.43 187.45 154.43C187.52 154.43 187.58 154.49 187.58 154.56C187.58 154.63 187.52 154.68 187.45 154.68Z" />
		<path id="Layer" class="shp9" d="M185.22 154.38C185.15 154.38 185.09 154.32 185.09 154.25C185.09 154.18 185.15 154.12 185.22 154.12C185.29 154.12 185.34 154.18 185.34 154.25C185.34 154.32 185.29 154.38 185.22 154.38Z" />
		<path id="Layer" class="shp9" d="M185.96 154.56C185.89 154.56 185.83 154.5 185.83 154.43C185.83 154.36 185.89 154.3 185.96 154.3C186.03 154.3 186.08 154.36 186.08 154.43C186.08 154.5 186.03 154.56 185.96 154.56Z" />
		<path id="Layer" class="shp9" d="M183.83 154.12C183.76 154.12 183.7 154.06 183.7 153.99C183.7 153.92 183.76 153.87 183.83 153.87C183.9 153.87 183.96 153.92 183.96 153.99C183.96 154.06 183.9 154.12 183.83 154.12Z" />
		<path id="Layer" class="shp9" d="M184.5 154.25C184.43 154.25 184.37 154.19 184.37 154.12C184.37 154.05 184.43 153.99 184.5 153.99C184.57 153.99 184.62 154.05 184.62 154.12C184.62 154.19 184.57 154.25 184.5 154.25Z" />
		<path id="Layer" class="shp9" d="M183.1 153.87C183.03 153.87 182.97 153.81 182.97 153.74C182.97 153.67 183.03 153.61 183.1 153.61C183.17 153.61 183.23 153.67 183.23 153.74C183.23 153.81 183.17 153.87 183.1 153.87Z" />
		<path id="Layer" class="shp9" d="M191.22 154.3C191.14 154.3 191.09 154.25 191.09 154.18C191.09 154.11 191.14 154.05 191.22 154.05C191.29 154.05 191.34 154.11 191.34 154.18C191.34 154.25 191.29 154.3 191.22 154.3Z" />
		<path id="Layer" class="shp9" d="M189.74 154.56C189.67 154.56 189.62 154.5 189.62 154.43C189.62 154.36 189.67 154.3 189.74 154.3C189.81 154.3 189.87 154.36 189.87 154.43C189.87 154.5 189.81 154.56 189.74 154.56Z" />
		<path id="Layer" class="shp9" d="M188.14 154.68C188.07 154.68 188.02 154.63 188.02 154.56C188.02 154.49 188.07 154.43 188.14 154.43C188.21 154.43 188.27 154.49 188.27 154.56C188.27 154.63 188.21 154.68 188.14 154.68Z" />
		<path id="Layer" class="shp9" d="M186.69 154.68C186.62 154.68 186.56 154.63 186.56 154.56C186.56 154.49 186.62 154.43 186.69 154.43C186.76 154.43 186.82 154.49 186.82 154.56C186.82 154.63 186.76 154.68 186.69 154.68Z" />
	</g>
	<g id="Layer" style="opacity: 0.8">
		<path id="Layer" class="shp9" d="M193.38 154.31C193.31 154.31 193.26 154.26 193.26 154.19C193.26 154.12 193.31 154.06 193.38 154.06C193.45 154.06 193.51 154.12 193.51 154.19C193.51 154.26 193.45 154.31 193.38 154.31Z" />
		<path id="Layer" class="shp9" d="M192.74 154.49C192.67 154.49 192.61 154.44 192.61 154.37C192.61 154.3 192.67 154.24 192.74 154.24C192.81 154.24 192.87 154.3 192.87 154.37C192.87 154.44 192.81 154.49 192.74 154.49Z" />
		<path id="Layer" class="shp9" d="M191.94 154.75C191.87 154.75 191.82 154.69 191.82 154.62C191.82 154.55 191.87 154.49 191.94 154.49C192.01 154.49 192.07 154.55 192.07 154.62C192.07 154.69 192.01 154.75 191.94 154.75Z" />
		<path id="Layer" class="shp9" d="M190.52 155.05C190.45 155.05 190.39 155 190.39 154.93C190.39 154.86 190.45 154.8 190.52 154.8C190.59 154.8 190.64 154.86 190.64 154.93C190.64 155 190.59 155.05 190.52 155.05Z" />
		<path id="Layer" class="shp9" d="M189.01 155.24C188.94 155.24 188.88 155.18 188.88 155.11C188.88 155.04 188.94 154.98 189.01 154.98C189.08 154.98 189.14 155.04 189.14 155.11C189.14 155.18 189.08 155.24 189.01 155.24Z" />
		<path id="Layer" class="shp9" d="M187.45 155.31C187.38 155.31 187.33 155.25 187.33 155.18C187.33 155.11 187.38 155.05 187.45 155.05C187.52 155.05 187.58 155.11 187.58 155.18C187.58 155.25 187.52 155.31 187.45 155.31Z" />
		<path id="Layer" class="shp9" d="M185.22 155C185.15 155 185.09 154.94 185.09 154.87C185.09 154.8 185.15 154.75 185.22 154.75C185.29 154.75 185.34 154.8 185.34 154.87C185.34 154.94 185.29 155 185.22 155Z" />
		<path id="Layer" class="shp9" d="M185.96 155.18C185.89 155.18 185.83 155.12 185.83 155.05C185.83 154.98 185.89 154.93 185.96 154.93C186.03 154.93 186.08 154.98 186.08 155.05C186.08 155.12 186.03 155.18 185.96 155.18Z" />
		<path id="Layer" class="shp9" d="M183.83 154.75C183.76 154.75 183.7 154.69 183.7 154.62C183.7 154.55 183.76 154.49 183.83 154.49C183.9 154.49 183.96 154.55 183.96 154.62C183.96 154.69 183.9 154.75 183.83 154.75Z" />
		<path id="Layer" class="shp9" d="M184.5 154.87C184.43 154.87 184.37 154.82 184.37 154.75C184.37 154.68 184.43 154.62 184.5 154.62C184.57 154.62 184.62 154.68 184.62 154.75C184.62 154.82 184.57 154.87 184.5 154.87Z" />
		<path id="Layer" class="shp9" d="M183.1 154.49C183.03 154.49 182.97 154.44 182.97 154.37C182.97 154.3 183.03 154.24 183.1 154.24C183.17 154.24 183.23 154.3 183.23 154.37C183.23 154.44 183.17 154.49 183.1 154.49Z" />
		<path id="Layer" class="shp9" d="M191.22 154.93C191.14 154.93 191.09 154.87 191.09 154.8C191.09 154.73 191.14 154.67 191.22 154.67C191.29 154.67 191.34 154.73 191.34 154.8C191.34 154.87 191.29 154.93 191.22 154.93Z" />
		<path id="Layer" class="shp9" d="M189.74 155.18C189.67 155.18 189.62 155.12 189.62 155.05C189.62 154.98 189.67 154.93 189.74 154.93C189.81 154.93 189.87 154.98 189.87 155.05C189.87 155.12 189.81 155.18 189.74 155.18Z" />
		<path id="Layer" class="shp9" d="M188.14 155.31C188.07 155.31 188.02 155.25 188.02 155.18C188.02 155.11 188.07 155.05 188.14 155.05C188.21 155.05 188.27 155.11 188.27 155.18C188.27 155.25 188.21 155.31 188.14 155.31Z" />
		<path id="Layer" class="shp9" d="M186.69 155.31C186.62 155.31 186.56 155.25 186.56 155.18C186.56 155.11 186.62 155.05 186.69 155.05C186.76 155.05 186.82 155.11 186.82 155.18C186.82 155.25 186.76 155.31 186.69 155.31Z" />
	</g>
	<g id="Layer" style="opacity: 0.8">
		<path id="Layer" class="shp9" d="M193.38 154.94C193.31 154.94 193.26 154.88 193.26 154.81C193.26 154.74 193.31 154.68 193.38 154.68C193.45 154.68 193.51 154.74 193.51 154.81C193.51 154.88 193.45 154.94 193.38 154.94Z" />
		<path id="Layer" class="shp9" d="M192.74 155.12C192.67 155.12 192.61 155.06 192.61 154.99C192.61 154.92 192.67 154.86 192.74 154.86C192.81 154.86 192.87 154.92 192.87 154.99C192.87 155.06 192.81 155.12 192.74 155.12Z" />
		<path id="Layer" class="shp9" d="M191.94 155.37C191.87 155.37 191.82 155.31 191.82 155.24C191.82 155.17 191.87 155.12 191.94 155.12C192.01 155.12 192.07 155.17 192.07 155.24C192.07 155.31 192.01 155.37 191.94 155.37Z" />
		<path id="Layer" class="shp9" d="M190.52 155.68C190.45 155.68 190.39 155.62 190.39 155.55C190.39 155.48 190.45 155.42 190.52 155.42C190.59 155.42 190.64 155.48 190.64 155.55C190.64 155.62 190.59 155.68 190.52 155.68Z" />
		<path id="Layer" class="shp9" d="M189.01 155.86C188.94 155.86 188.88 155.8 188.88 155.73C188.88 155.66 188.94 155.61 189.01 155.61C189.08 155.61 189.14 155.66 189.14 155.73C189.14 155.8 189.08 155.86 189.01 155.86Z" />
		<path id="Layer" class="shp9" d="M187.45 155.93C187.38 155.93 187.33 155.87 187.33 155.8C187.33 155.73 187.38 155.68 187.45 155.68C187.52 155.68 187.58 155.73 187.58 155.8C187.58 155.87 187.52 155.93 187.45 155.93Z" />
		<path id="Layer" class="shp9" d="M185.22 155.62C185.15 155.62 185.09 155.57 185.09 155.5C185.09 155.43 185.15 155.37 185.22 155.37C185.29 155.37 185.34 155.43 185.34 155.5C185.34 155.57 185.29 155.62 185.22 155.62Z" />
		<path id="Layer" class="shp9" d="M185.96 155.8C185.89 155.8 185.83 155.75 185.83 155.68C185.83 155.61 185.89 155.55 185.96 155.55C186.03 155.55 186.08 155.61 186.08 155.68C186.08 155.75 186.03 155.8 185.96 155.8Z" />
		<path id="Layer" class="shp9" d="M183.83 155.37C183.76 155.37 183.7 155.31 183.7 155.24C183.7 155.17 183.76 155.12 183.83 155.12C183.9 155.12 183.96 155.17 183.96 155.24C183.96 155.31 183.9 155.37 183.83 155.37Z" />
		<path id="Layer" class="shp9" d="M184.5 155.5C184.43 155.5 184.37 155.44 184.37 155.37C184.37 155.3 184.43 155.24 184.5 155.24C184.57 155.24 184.62 155.3 184.62 155.37C184.62 155.44 184.57 155.5 184.5 155.5Z" />
		<path id="Layer" class="shp9" d="M183.1 155.12C183.03 155.12 182.97 155.06 182.97 154.99C182.97 154.92 183.03 154.86 183.1 154.86C183.17 154.86 183.23 154.92 183.23 154.99C183.23 155.06 183.17 155.12 183.1 155.12Z" />
		<path id="Layer" class="shp9" d="M191.22 155.55C191.14 155.55 191.09 155.49 191.09 155.42C191.09 155.35 191.14 155.3 191.22 155.3C191.29 155.3 191.34 155.35 191.34 155.42C191.34 155.49 191.29 155.55 191.22 155.55Z" />
		<path id="Layer" class="shp9" d="M189.74 155.8C189.67 155.8 189.62 155.75 189.62 155.68C189.62 155.61 189.67 155.55 189.74 155.55C189.81 155.55 189.87 155.61 189.87 155.68C189.87 155.75 189.81 155.8 189.74 155.8Z" />
		<path id="Layer" class="shp9" d="M188.14 155.93C188.07 155.93 188.02 155.87 188.02 155.8C188.02 155.73 188.07 155.68 188.14 155.68C188.21 155.68 188.27 155.73 188.27 155.8C188.27 155.87 188.21 155.93 188.14 155.93Z" />
		<path id="Layer" class="shp9" d="M186.69 155.93C186.62 155.93 186.56 155.87 186.56 155.8C186.56 155.73 186.62 155.68 186.69 155.68C186.76 155.68 186.82 155.73 186.82 155.8C186.82 155.87 186.76 155.93 186.69 155.93Z" />
	</g>
	<g id="Layer" style="opacity: 0.8">
		<path id="Layer" class="shp9" d="M193.38 155.56C193.31 155.56 193.26 155.5 193.26 155.43C193.26 155.36 193.31 155.31 193.38 155.31C193.45 155.31 193.51 155.36 193.51 155.43C193.51 155.5 193.45 155.56 193.38 155.56Z" />
		<path id="Layer" class="shp9" d="M192.74 155.74C192.67 155.74 192.61 155.68 192.61 155.61C192.61 155.54 192.67 155.49 192.74 155.49C192.81 155.49 192.87 155.54 192.87 155.61C192.87 155.68 192.81 155.74 192.74 155.74Z" />
		<path id="Layer" class="shp9" d="M191.94 155.99C191.87 155.99 191.82 155.94 191.82 155.87C191.82 155.8 191.87 155.74 191.94 155.74C192.01 155.74 192.07 155.8 192.07 155.87C192.07 155.94 192.01 155.99 191.94 155.99Z" />
		<path id="Layer" class="shp9" d="M190.52 156.3C190.45 156.3 190.39 156.25 190.39 156.18C190.39 156.11 190.45 156.05 190.52 156.05C190.59 156.05 190.64 156.11 190.64 156.18C190.64 156.25 190.59 156.3 190.52 156.3Z" />
		<path id="Layer" class="shp9" d="M189.01 156.48C188.94 156.48 188.88 156.43 188.88 156.36C188.88 156.29 188.94 156.23 189.01 156.23C189.08 156.23 189.14 156.29 189.14 156.36C189.14 156.43 189.08 156.48 189.01 156.48Z" />
		<path id="Layer" class="shp9" d="M187.45 156.56C187.38 156.56 187.33 156.5 187.33 156.43C187.33 156.36 187.38 156.3 187.45 156.3C187.52 156.3 187.58 156.36 187.58 156.43C187.58 156.5 187.52 156.56 187.45 156.56Z" />
		<path id="Layer" class="shp9" d="M185.22 156.25C185.15 156.25 185.09 156.19 185.09 156.12C185.09 156.05 185.15 155.99 185.22 155.99C185.29 155.99 185.34 156.05 185.34 156.12C185.34 156.19 185.29 156.25 185.22 156.25Z" />
		<path id="Layer" class="shp9" d="M185.96 156.43C185.89 156.43 185.83 156.37 185.83 156.3C185.83 156.23 185.89 156.18 185.96 156.18C186.03 156.18 186.08 156.23 186.08 156.3C186.08 156.37 186.03 156.43 185.96 156.43Z" />
		<path id="Layer" class="shp9" d="M183.83 155.99C183.76 155.99 183.7 155.94 183.7 155.87C183.7 155.8 183.76 155.74 183.83 155.74C183.9 155.74 183.96 155.8 183.96 155.87C183.96 155.94 183.9 155.99 183.83 155.99Z" />
		<path id="Layer" class="shp9" d="M184.5 156.12C184.43 156.12 184.37 156.06 184.37 155.99C184.37 155.92 184.43 155.87 184.5 155.87C184.57 155.87 184.62 155.92 184.62 155.99C184.62 156.06 184.57 156.12 184.5 156.12Z" />
		<path id="Layer" class="shp9" d="M183.1 155.74C183.03 155.74 182.97 155.68 182.97 155.61C182.97 155.54 183.03 155.49 183.1 155.49C183.17 155.49 183.23 155.54 183.23 155.61C183.23 155.68 183.17 155.74 183.1 155.74Z" />
		<path id="Layer" class="shp9" d="M191.22 156.18C191.14 156.18 191.09 156.12 191.09 156.05C191.09 155.98 191.14 155.92 191.22 155.92C191.29 155.92 191.34 155.98 191.34 156.05C191.34 156.12 191.29 156.18 191.22 156.18Z" />
		<path id="Layer" class="shp9" d="M189.74 156.43C189.67 156.43 189.62 156.37 189.62 156.3C189.62 156.23 189.67 156.18 189.74 156.18C189.81 156.18 189.87 156.23 189.87 156.3C189.87 156.37 189.81 156.43 189.74 156.43Z" />
		<path id="Layer" class="shp9" d="M188.14 156.56C188.07 156.56 188.02 156.5 188.02 156.43C188.02 156.36 188.07 156.3 188.14 156.3C188.21 156.3 188.27 156.36 188.27 156.43C188.27 156.5 188.21 156.56 188.14 156.56Z" />
		<path id="Layer" class="shp9" d="M186.69 156.56C186.62 156.56 186.56 156.5 186.56 156.43C186.56 156.36 186.62 156.3 186.69 156.3C186.76 156.3 186.82 156.36 186.82 156.43C186.82 156.5 186.76 156.56 186.69 156.56Z" />
	</g>
	<g id="Layer" style="opacity: 0.8">
		<path id="Layer" class="shp9" d="M193.38 156.19C193.31 156.19 193.26 156.13 193.26 156.06C193.26 155.99 193.31 155.93 193.38 155.93C193.45 155.93 193.51 155.99 193.51 156.06C193.51 156.13 193.45 156.19 193.38 156.19Z" />
		<path id="Layer" class="shp9" d="M192.74 156.37C192.67 156.37 192.61 156.31 192.61 156.24C192.61 156.17 192.67 156.11 192.74 156.11C192.81 156.11 192.87 156.17 192.87 156.24C192.87 156.31 192.81 156.37 192.74 156.37Z" />
		<path id="Layer" class="shp9" d="M191.94 156.62C191.87 156.62 191.82 156.56 191.82 156.49C191.82 156.42 191.87 156.37 191.94 156.37C192.01 156.37 192.07 156.42 192.07 156.49C192.07 156.56 192.01 156.62 191.94 156.62Z" />
		<path id="Layer" class="shp9" d="M190.52 156.93C190.45 156.93 190.39 156.87 190.39 156.8C190.39 156.73 190.45 156.67 190.52 156.67C190.59 156.67 190.64 156.73 190.64 156.8C190.64 156.87 190.59 156.93 190.52 156.93Z" />
		<path id="Layer" class="shp9" d="M189.01 157.11C188.94 157.11 188.88 157.05 188.88 156.98C188.88 156.91 188.94 156.85 189.01 156.85C189.08 156.85 189.14 156.91 189.14 156.98C189.14 157.05 189.08 157.11 189.01 157.11Z" />
		<path id="Layer" class="shp9" d="M187.45 157.18C187.38 157.18 187.33 157.12 187.33 157.05C187.33 156.98 187.38 156.93 187.45 156.93C187.52 156.93 187.58 156.98 187.58 157.05C187.58 157.12 187.52 157.18 187.45 157.18Z" />
		<path id="Layer" class="shp9" d="M185.22 156.87C185.15 156.87 185.09 156.82 185.09 156.75C185.09 156.68 185.15 156.62 185.22 156.62C185.29 156.62 185.34 156.68 185.34 156.75C185.34 156.82 185.29 156.87 185.22 156.87Z" />
		<path id="Layer" class="shp9" d="M185.96 157.05C185.89 157.05 185.83 157 185.83 156.93C185.83 156.86 185.89 156.8 185.96 156.8C186.03 156.8 186.08 156.86 186.08 156.93C186.08 157 186.03 157.05 185.96 157.05Z" />
		<path id="Layer" class="shp9" d="M183.83 156.62C183.76 156.62 183.7 156.56 183.7 156.49C183.7 156.42 183.76 156.37 183.83 156.37C183.9 156.37 183.96 156.42 183.96 156.49C183.96 156.56 183.9 156.62 183.83 156.62Z" />
		<path id="Layer" class="shp9" d="M184.5 156.75C184.43 156.75 184.37 156.69 184.37 156.62C184.37 156.55 184.43 156.49 184.5 156.49C184.57 156.49 184.62 156.55 184.62 156.62C184.62 156.69 184.57 156.75 184.5 156.75Z" />
		<path id="Layer" class="shp9" d="M183.1 156.37C183.03 156.37 182.97 156.31 182.97 156.24C182.97 156.17 183.03 156.11 183.1 156.11C183.17 156.11 183.23 156.17 183.23 156.24C183.23 156.31 183.17 156.37 183.1 156.37Z" />
		<path id="Layer" class="shp9" d="M191.22 156.8C191.14 156.8 191.09 156.74 191.09 156.67C191.09 156.6 191.14 156.55 191.22 156.55C191.29 156.55 191.34 156.6 191.34 156.67C191.34 156.74 191.29 156.8 191.22 156.8Z" />
		<path id="Layer" class="shp9" d="M189.74 157.05C189.67 157.05 189.62 157 189.62 156.93C189.62 156.86 189.67 156.8 189.74 156.8C189.81 156.8 189.87 156.86 189.87 156.93C189.87 157 189.81 157.05 189.74 157.05Z" />
		<path id="Layer" class="shp9" d="M188.14 157.18C188.07 157.18 188.02 157.12 188.02 157.05C188.02 156.98 188.07 156.93 188.14 156.93C188.21 156.93 188.27 156.98 188.27 157.05C188.27 157.12 188.21 157.18 188.14 157.18Z" />
		<path id="Layer" class="shp9" d="M186.69 157.18C186.62 157.18 186.56 157.12 186.56 157.05C186.56 156.98 186.62 156.93 186.69 156.93C186.76 156.93 186.82 156.98 186.82 157.05C186.82 157.12 186.76 157.18 186.69 157.18Z" />
	</g>
	<g id="Layer" style="opacity: 0.8">
		<path id="Layer" class="shp9" d="M193.38 156.81C193.31 156.81 193.26 156.75 193.26 156.68C193.26 156.61 193.31 156.56 193.38 156.56C193.45 156.56 193.51 156.61 193.51 156.68C193.51 156.75 193.45 156.81 193.38 156.81Z" />
		<path id="Layer" class="shp9" d="M192.74 156.99C192.67 156.99 192.61 156.93 192.61 156.86C192.61 156.79 192.67 156.74 192.74 156.74C192.81 156.74 192.87 156.79 192.87 156.86C192.87 156.93 192.81 156.99 192.74 156.99Z" />
		<path id="Layer" class="shp9" d="M191.94 157.24C191.87 157.24 191.82 157.19 191.82 157.12C191.82 157.05 191.87 156.99 191.94 156.99C192.01 156.99 192.07 157.05 192.07 157.12C192.07 157.19 192.01 157.24 191.94 157.24Z" />
		<path id="Layer" class="shp9" d="M190.52 157.55C190.45 157.55 190.39 157.49 190.39 157.42C190.39 157.35 190.45 157.3 190.52 157.3C190.59 157.3 190.64 157.35 190.64 157.42C190.64 157.49 190.59 157.55 190.52 157.55Z" />
		<path id="Layer" class="shp9" d="M189.01 157.73C188.94 157.73 188.88 157.68 188.88 157.61C188.88 157.54 188.94 157.48 189.01 157.48C189.08 157.48 189.14 157.54 189.14 157.61C189.14 157.68 189.08 157.73 189.01 157.73Z" />
		<path id="Layer" class="shp9" d="M187.45 157.8C187.38 157.8 187.33 157.75 187.33 157.68C187.33 157.61 187.38 157.55 187.45 157.55C187.52 157.55 187.58 157.61 187.58 157.68C187.58 157.75 187.52 157.8 187.45 157.8Z" />
		<path id="Layer" class="shp9" d="M185.22 157.5C185.15 157.5 185.09 157.44 185.09 157.37C185.09 157.3 185.15 157.24 185.22 157.24C185.29 157.24 185.34 157.3 185.34 157.37C185.34 157.44 185.29 157.5 185.22 157.5Z" />
		<path id="Layer" class="shp9" d="M185.96 157.68C185.89 157.68 185.83 157.62 185.83 157.55C185.83 157.48 185.89 157.42 185.96 157.42C186.03 157.42 186.08 157.48 186.08 157.55C186.08 157.62 186.03 157.68 185.96 157.68Z" />
		<path id="Layer" class="shp9" d="M183.83 157.24C183.76 157.24 183.7 157.19 183.7 157.12C183.7 157.05 183.76 156.99 183.83 156.99C183.9 156.99 183.96 157.05 183.96 157.12C183.96 157.19 183.9 157.24 183.83 157.24Z" />
		<path id="Layer" class="shp9" d="M184.5 157.37C184.43 157.37 184.37 157.31 184.37 157.24C184.37 157.17 184.43 157.12 184.5 157.12C184.57 157.12 184.62 157.17 184.62 157.24C184.62 157.31 184.57 157.37 184.5 157.37Z" />
		<path id="Layer" class="shp9" d="M183.1 156.99C183.03 156.99 182.97 156.93 182.97 156.86C182.97 156.79 183.03 156.74 183.1 156.74C183.17 156.74 183.23 156.79 183.23 156.86C183.23 156.93 183.17 156.99 183.1 156.99Z" />
		<path id="Layer" class="shp9" d="M191.22 157.42C191.14 157.42 191.09 157.37 191.09 157.3C191.09 157.23 191.14 157.17 191.22 157.17C191.29 157.17 191.34 157.23 191.34 157.3C191.34 157.37 191.29 157.42 191.22 157.42Z" />
		<path id="Layer" class="shp9" d="M189.74 157.68C189.67 157.68 189.62 157.62 189.62 157.55C189.62 157.48 189.67 157.42 189.74 157.42C189.81 157.42 189.87 157.48 189.87 157.55C189.87 157.62 189.81 157.68 189.74 157.68Z" />
		<path id="Layer" class="shp9" d="M188.14 157.8C188.07 157.8 188.02 157.75 188.02 157.68C188.02 157.61 188.07 157.55 188.14 157.55C188.21 157.55 188.27 157.61 188.27 157.68C188.27 157.75 188.21 157.8 188.14 157.8Z" />
		<path id="Layer" class="shp9" d="M186.69 157.8C186.62 157.8 186.56 157.75 186.56 157.68C186.56 157.61 186.62 157.55 186.69 157.55C186.76 157.55 186.82 157.61 186.82 157.68C186.82 157.75 186.76 157.8 186.69 157.8Z" />
	</g>
	<g id="Layer" style="opacity: 0.8">
		<path id="Layer" class="shp9" d="M193.38 157.43C193.31 157.43 193.26 157.38 193.26 157.31C193.26 157.24 193.31 157.18 193.38 157.18C193.45 157.18 193.51 157.24 193.51 157.31C193.51 157.38 193.45 157.43 193.38 157.43Z" />
		<path id="Layer" class="shp9" d="M192.74 157.61C192.67 157.61 192.61 157.56 192.61 157.49C192.61 157.42 192.67 157.36 192.74 157.36C192.81 157.36 192.87 157.42 192.87 157.49C192.87 157.56 192.81 157.61 192.74 157.61Z" />
		<path id="Layer" class="shp9" d="M191.94 157.87C191.87 157.87 191.82 157.81 191.82 157.74C191.82 157.67 191.87 157.61 191.94 157.61C192.01 157.61 192.07 157.67 192.07 157.74C192.07 157.81 192.01 157.87 191.94 157.87Z" />
		<path id="Layer" class="shp9" d="M190.52 158.18C190.45 158.18 190.39 158.12 190.39 158.05C190.39 157.98 190.45 157.92 190.52 157.92C190.59 157.92 190.64 157.98 190.64 158.05C190.64 158.12 190.59 158.18 190.52 158.18Z" />
		<path id="Layer" class="shp9" d="M189.01 158.36C188.94 158.36 188.88 158.3 188.88 158.23C188.88 158.16 188.94 158.1 189.01 158.1C189.08 158.1 189.14 158.16 189.14 158.23C189.14 158.3 189.08 158.36 189.01 158.36Z" />
		<path id="Layer" class="shp9" d="M187.45 158.43C187.38 158.43 187.33 158.37 187.33 158.3C187.33 158.23 187.38 158.18 187.45 158.18C187.52 158.18 187.58 158.23 187.58 158.3C187.58 158.37 187.52 158.43 187.45 158.43Z" />
		<path id="Layer" class="shp9" d="M185.22 158.12C185.15 158.12 185.09 158.06 185.09 157.99C185.09 157.92 185.15 157.87 185.22 157.87C185.29 157.87 185.34 157.92 185.34 157.99C185.34 158.06 185.29 158.12 185.22 158.12Z" />
		<path id="Layer" class="shp9" d="M185.96 158.3C185.89 158.3 185.83 158.25 185.83 158.18C185.83 158.11 185.89 158.05 185.96 158.05C186.03 158.05 186.08 158.11 186.08 158.18C186.08 158.25 186.03 158.3 185.96 158.3Z" />
		<path id="Layer" class="shp9" d="M183.83 157.87C183.76 157.87 183.7 157.81 183.7 157.74C183.7 157.67 183.76 157.61 183.83 157.61C183.9 157.61 183.96 157.67 183.96 157.74C183.96 157.81 183.9 157.87 183.83 157.87Z" />
		<path id="Layer" class="shp9" d="M184.5 157.99C184.43 157.99 184.37 157.94 184.37 157.87C184.37 157.8 184.43 157.74 184.5 157.74C184.57 157.74 184.62 157.8 184.62 157.87C184.62 157.94 184.57 157.99 184.5 157.99Z" />
		<path id="Layer" class="shp9" d="M183.1 157.61C183.03 157.61 182.97 157.56 182.97 157.49C182.97 157.42 183.03 157.36 183.1 157.36C183.17 157.36 183.23 157.42 183.23 157.49C183.23 157.56 183.17 157.61 183.1 157.61Z" />
		<path id="Layer" class="shp9" d="M191.22 158.05C191.14 158.05 191.09 157.99 191.09 157.92C191.09 157.85 191.14 157.79 191.22 157.79C191.29 157.79 191.34 157.85 191.34 157.92C191.34 157.99 191.29 158.05 191.22 158.05Z" />
		<path id="Layer" class="shp9" d="M189.74 158.3C189.67 158.3 189.62 158.25 189.62 158.18C189.62 158.11 189.67 158.05 189.74 158.05C189.81 158.05 189.87 158.11 189.87 158.18C189.87 158.25 189.81 158.3 189.74 158.3Z" />
		<path id="Layer" class="shp9" d="M188.14 158.43C188.07 158.43 188.02 158.37 188.02 158.3C188.02 158.23 188.07 158.18 188.14 158.18C188.21 158.18 188.27 158.23 188.27 158.3C188.27 158.37 188.21 158.43 188.14 158.43Z" />
		<path id="Layer" class="shp9" d="M186.69 158.43C186.62 158.43 186.56 158.37 186.56 158.3C186.56 158.23 186.62 158.18 186.69 158.18C186.76 158.18 186.82 158.23 186.82 158.3C186.82 158.37 186.76 158.43 186.69 158.43Z" />
	</g>
	<g id="Layer" style="opacity: 0.8">
		<path id="Layer" class="shp9" d="M193.38 158.06C193.31 158.06 193.26 158 193.26 157.93C193.26 157.86 193.31 157.8 193.38 157.8C193.45 157.8 193.51 157.86 193.51 157.93C193.51 158 193.45 158.06 193.38 158.06Z" />
		<path id="Layer" class="shp9" d="M192.74 158.24C192.67 158.24 192.61 158.18 192.61 158.11C192.61 158.04 192.67 157.98 192.74 157.98C192.81 157.98 192.87 158.04 192.87 158.11C192.87 158.18 192.81 158.24 192.74 158.24Z" />
		<path id="Layer" class="shp9" d="M191.94 158.49C191.87 158.49 191.82 158.44 191.82 158.37C191.82 158.3 191.87 158.24 191.94 158.24C192.01 158.24 192.07 158.3 192.07 158.37C192.07 158.44 192.01 158.49 191.94 158.49Z" />
		<path id="Layer" class="shp9" d="M190.52 158.8C190.45 158.8 190.39 158.74 190.39 158.67C190.39 158.6 190.45 158.55 190.52 158.55C190.59 158.55 190.64 158.6 190.64 158.67C190.64 158.74 190.59 158.8 190.52 158.8Z" />
		<path id="Layer" class="shp9" d="M189.01 158.98C188.94 158.98 188.88 158.93 188.88 158.85C188.88 158.78 188.94 158.73 189.01 158.73C189.08 158.73 189.14 158.78 189.14 158.85C189.14 158.93 189.08 158.98 189.01 158.98Z" />
		<path id="Layer" class="shp9" d="M187.45 159.05C187.38 159.05 187.33 159 187.33 158.93C187.33 158.86 187.38 158.8 187.45 158.8C187.52 158.8 187.58 158.86 187.58 158.93C187.58 159 187.52 159.05 187.45 159.05Z" />
		<path id="Layer" class="shp9" d="M185.22 158.75C185.15 158.75 185.09 158.69 185.09 158.62C185.09 158.55 185.15 158.49 185.22 158.49C185.29 158.49 185.34 158.55 185.34 158.62C185.34 158.69 185.29 158.75 185.22 158.75Z" />
		<path id="Layer" class="shp9" d="M185.96 158.93C185.89 158.93 185.83 158.87 185.83 158.8C185.83 158.73 185.89 158.67 185.96 158.67C186.03 158.67 186.08 158.73 186.08 158.8C186.08 158.87 186.03 158.93 185.96 158.93Z" />
		<path id="Layer" class="shp9" d="M183.83 158.49C183.76 158.49 183.7 158.44 183.7 158.37C183.7 158.3 183.76 158.24 183.83 158.24C183.9 158.24 183.96 158.3 183.96 158.37C183.96 158.44 183.9 158.49 183.83 158.49Z" />
		<path id="Layer" class="shp9" d="M184.5 158.62C184.43 158.62 184.37 158.56 184.37 158.49C184.37 158.42 184.43 158.37 184.5 158.37C184.57 158.37 184.62 158.42 184.62 158.49C184.62 158.56 184.57 158.62 184.5 158.62Z" />
		<path id="Layer" class="shp9" d="M183.1 158.24C183.03 158.24 182.97 158.18 182.97 158.11C182.97 158.04 183.03 157.98 183.1 157.98C183.17 157.98 183.23 158.04 183.23 158.11C183.23 158.18 183.17 158.24 183.1 158.24Z" />
		<path id="Layer" class="shp9" d="M191.22 158.67C191.14 158.67 191.09 158.62 191.09 158.55C191.09 158.48 191.14 158.42 191.22 158.42C191.29 158.42 191.34 158.48 191.34 158.55C191.34 158.62 191.29 158.67 191.22 158.67Z" />
		<path id="Layer" class="shp9" d="M189.74 158.93C189.67 158.93 189.62 158.87 189.62 158.8C189.62 158.73 189.67 158.67 189.74 158.67C189.81 158.67 189.87 158.73 189.87 158.8C189.87 158.87 189.81 158.93 189.74 158.93Z" />
		<path id="Layer" class="shp9" d="M188.14 159.05C188.07 159.05 188.02 159 188.02 158.93C188.02 158.86 188.07 158.8 188.14 158.8C188.21 158.8 188.27 158.86 188.27 158.93C188.27 159 188.21 159.05 188.14 159.05Z" />
		<path id="Layer" class="shp9" d="M186.69 159.05C186.62 159.05 186.56 159 186.56 158.93C186.56 158.86 186.62 158.8 186.69 158.8C186.76 158.8 186.82 158.86 186.82 158.93C186.82 159 186.76 159.05 186.69 159.05Z" />
	</g>
	<g id="Layer" style="opacity: 0.8">
		<path id="Layer" class="shp9" d="M193.38 158.68C193.31 158.68 193.26 158.63 193.26 158.56C193.26 158.49 193.31 158.43 193.38 158.43C193.45 158.43 193.51 158.49 193.51 158.56C193.51 158.63 193.45 158.68 193.38 158.68Z" />
		<path id="Layer" class="shp9" d="M192.74 158.86C192.67 158.86 192.61 158.81 192.61 158.74C192.61 158.67 192.67 158.61 192.74 158.61C192.81 158.61 192.87 158.67 192.87 158.74C192.87 158.81 192.81 158.86 192.74 158.86Z" />
		<path id="Layer" class="shp9" d="M191.94 159.12C191.87 159.12 191.82 159.06 191.82 158.99C191.82 158.92 191.87 158.86 191.94 158.86C192.01 158.86 192.07 158.92 192.07 158.99C192.07 159.06 192.01 159.12 191.94 159.12Z" />
		<path id="Layer" class="shp9" d="M190.52 159.42C190.45 159.42 190.39 159.37 190.39 159.3C190.39 159.23 190.45 159.17 190.52 159.17C190.59 159.17 190.64 159.23 190.64 159.3C190.64 159.37 190.59 159.42 190.52 159.42Z" />
		<path id="Layer" class="shp9" d="M189.01 159.61C188.94 159.61 188.88 159.55 188.88 159.48C188.88 159.41 188.94 159.35 189.01 159.35C189.08 159.35 189.14 159.41 189.14 159.48C189.14 159.55 189.08 159.61 189.01 159.61Z" />
		<path id="Layer" class="shp9" d="M187.45 159.68C187.38 159.68 187.33 159.62 187.33 159.55C187.33 159.48 187.38 159.42 187.45 159.42C187.52 159.42 187.58 159.48 187.58 159.55C187.58 159.62 187.52 159.68 187.45 159.68Z" />
		<path id="Layer" class="shp9" d="M185.22 159.37C185.15 159.37 185.09 159.31 185.09 159.24C185.09 159.17 185.15 159.12 185.22 159.12C185.29 159.12 185.34 159.17 185.34 159.24C185.34 159.31 185.29 159.37 185.22 159.37Z" />
		<path id="Layer" class="shp9" d="M185.96 159.55C185.89 159.55 185.83 159.49 185.83 159.42C185.83 159.35 185.89 159.3 185.96 159.3C186.03 159.3 186.08 159.35 186.08 159.42C186.08 159.49 186.03 159.55 185.96 159.55Z" />
		<path id="Layer" class="shp9" d="M183.83 159.12C183.76 159.12 183.7 159.06 183.7 158.99C183.7 158.92 183.76 158.86 183.83 158.86C183.9 158.86 183.96 158.92 183.96 158.99C183.96 159.06 183.9 159.12 183.83 159.12Z" />
		<path id="Layer" class="shp9" d="M184.5 159.24C184.43 159.24 184.37 159.19 184.37 159.12C184.37 159.05 184.43 158.99 184.5 158.99C184.57 158.99 184.62 159.05 184.62 159.12C184.62 159.19 184.57 159.24 184.5 159.24Z" />
		<path id="Layer" class="shp9" d="M183.1 158.86C183.03 158.86 182.97 158.81 182.97 158.74C182.97 158.67 183.03 158.61 183.1 158.61C183.17 158.61 183.23 158.67 183.23 158.74C183.23 158.81 183.17 158.86 183.1 158.86Z" />
		<path id="Layer" class="shp9" d="M191.22 159.3C191.14 159.3 191.09 159.24 191.09 159.17C191.09 159.1 191.14 159.04 191.22 159.04C191.29 159.04 191.34 159.1 191.34 159.17C191.34 159.24 191.29 159.3 191.22 159.3Z" />
		<path id="Layer" class="shp9" d="M189.74 159.55C189.67 159.55 189.62 159.49 189.62 159.42C189.62 159.35 189.67 159.3 189.74 159.3C189.81 159.3 189.87 159.35 189.87 159.42C189.87 159.49 189.81 159.55 189.74 159.55Z" />
		<path id="Layer" class="shp9" d="M188.14 159.68C188.07 159.68 188.02 159.62 188.02 159.55C188.02 159.48 188.07 159.42 188.14 159.42C188.21 159.42 188.27 159.48 188.27 159.55C188.27 159.62 188.21 159.68 188.14 159.68Z" />
		<path id="Layer" class="shp9" d="M186.69 159.68C186.62 159.68 186.56 159.62 186.56 159.55C186.56 159.48 186.62 159.42 186.69 159.42C186.76 159.42 186.82 159.48 186.82 159.55C186.82 159.62 186.76 159.68 186.69 159.68Z" />
	</g>
	<g id="Layer" style="opacity: 0.8">
		<path id="Layer" class="shp9" d="M193.38 159.31C193.31 159.31 193.26 159.25 193.26 159.18C193.26 159.11 193.31 159.05 193.38 159.05C193.45 159.05 193.51 159.11 193.51 159.18C193.51 159.25 193.45 159.31 193.38 159.31Z" />
		<path id="Layer" class="shp9" d="M192.74 159.49C192.67 159.49 192.61 159.43 192.61 159.36C192.61 159.29 192.67 159.23 192.74 159.23C192.81 159.23 192.87 159.29 192.87 159.36C192.87 159.43 192.81 159.49 192.74 159.49Z" />
		<path id="Layer" class="shp9" d="M191.94 159.74C191.87 159.74 191.82 159.68 191.82 159.61C191.82 159.54 191.87 159.49 191.94 159.49C192.01 159.49 192.07 159.54 192.07 159.61C192.07 159.68 192.01 159.74 191.94 159.74Z" />
		<path id="Layer" class="shp9" d="M190.52 160.05C190.45 160.05 190.39 159.99 190.39 159.92C190.39 159.85 190.45 159.79 190.52 159.79C190.59 159.79 190.64 159.85 190.64 159.92C190.64 159.99 190.59 160.05 190.52 160.05Z" />
		<path id="Layer" class="shp9" d="M189.01 160.23C188.94 160.23 188.88 160.17 188.88 160.1C188.88 160.03 188.94 159.98 189.01 159.98C189.08 159.98 189.14 160.03 189.14 160.1C189.14 160.17 189.08 160.23 189.01 160.23Z" />
		<path id="Layer" class="shp9" d="M187.45 160.3C187.38 160.3 187.33 160.25 187.33 160.18C187.33 160.11 187.38 160.05 187.45 160.05C187.52 160.05 187.58 160.11 187.58 160.18C187.58 160.25 187.52 160.3 187.45 160.3Z" />
		<path id="Layer" class="shp9" d="M185.22 159.99C185.15 159.99 185.09 159.94 185.09 159.87C185.09 159.8 185.15 159.74 185.22 159.74C185.29 159.74 185.34 159.8 185.34 159.87C185.34 159.94 185.29 159.99 185.22 159.99Z" />
		<path id="Layer" class="shp9" d="M185.96 160.18C185.89 160.18 185.83 160.12 185.83 160.05C185.83 159.98 185.89 159.92 185.96 159.92C186.03 159.92 186.08 159.98 186.08 160.05C186.08 160.12 186.03 160.18 185.96 160.18Z" />
		<path id="Layer" class="shp9" d="M183.83 159.74C183.76 159.74 183.7 159.68 183.7 159.61C183.7 159.54 183.76 159.49 183.83 159.49C183.9 159.49 183.96 159.54 183.96 159.61C183.96 159.68 183.9 159.74 183.83 159.74Z" />
		<path id="Layer" class="shp9" d="M184.5 159.87C184.43 159.87 184.37 159.81 184.37 159.74C184.37 159.67 184.43 159.61 184.5 159.61C184.57 159.61 184.62 159.67 184.62 159.74C184.62 159.81 184.57 159.87 184.5 159.87Z" />
		<path id="Layer" class="shp9" d="M183.1 159.49C183.03 159.49 182.97 159.43 182.97 159.36C182.97 159.29 183.03 159.23 183.1 159.23C183.17 159.23 183.23 159.29 183.23 159.36C183.23 159.43 183.17 159.49 183.1 159.49Z" />
		<path id="Layer" class="shp9" d="M191.22 159.92C191.14 159.92 191.09 159.86 191.09 159.79C191.09 159.72 191.14 159.67 191.22 159.67C191.29 159.67 191.34 159.72 191.34 159.79C191.34 159.86 191.29 159.92 191.22 159.92Z" />
		<path id="Layer" class="shp9" d="M189.74 160.18C189.67 160.18 189.62 160.12 189.62 160.05C189.62 159.98 189.67 159.92 189.74 159.92C189.81 159.92 189.87 159.98 189.87 160.05C189.87 160.12 189.81 160.18 189.74 160.18Z" />
		<path id="Layer" class="shp9" d="M188.14 160.3C188.07 160.3 188.02 160.25 188.02 160.18C188.02 160.11 188.07 160.05 188.14 160.05C188.21 160.05 188.27 160.11 188.27 160.18C188.27 160.25 188.21 160.3 188.14 160.3Z" />
		<path id="Layer" class="shp9" d="M186.69 160.3C186.62 160.3 186.56 160.25 186.56 160.18C186.56 160.11 186.62 160.05 186.69 160.05C186.76 160.05 186.82 160.11 186.82 160.18C186.82 160.25 186.76 160.3 186.69 160.3Z" />
	</g>
	<g id="Layer" style="opacity: 0.8">
		<path id="Layer" class="shp9" d="M193.38 159.93C193.31 159.93 193.26 159.87 193.26 159.8C193.26 159.73 193.31 159.68 193.38 159.68C193.45 159.68 193.51 159.73 193.51 159.8C193.51 159.87 193.45 159.93 193.38 159.93Z" />
		<path id="Layer" class="shp9" d="M192.74 160.11C192.67 160.11 192.61 160.05 192.61 159.98C192.61 159.91 192.67 159.86 192.74 159.86C192.81 159.86 192.87 159.91 192.87 159.98C192.87 160.05 192.81 160.11 192.74 160.11Z" />
		<path id="Layer" class="shp9" d="M191.94 160.37C191.87 160.37 191.82 160.31 191.82 160.24C191.82 160.17 191.87 160.11 191.94 160.11C192.01 160.11 192.07 160.17 192.07 160.24C192.07 160.31 192.01 160.37 191.94 160.37Z" />
		<path id="Layer" class="shp9" d="M190.52 160.67C190.45 160.67 190.39 160.62 190.39 160.55C190.39 160.48 190.45 160.42 190.52 160.42C190.59 160.42 190.64 160.48 190.64 160.55C190.64 160.62 190.59 160.67 190.52 160.67Z" />
		<path id="Layer" class="shp9" d="M189.01 160.85C188.94 160.85 188.88 160.8 188.88 160.73C188.88 160.66 188.94 160.6 189.01 160.6C189.08 160.6 189.14 160.66 189.14 160.73C189.14 160.8 189.08 160.85 189.01 160.85Z" />
		<path id="Layer" class="shp9" d="M187.45 160.93C187.38 160.93 187.33 160.87 187.33 160.8C187.33 160.73 187.38 160.67 187.45 160.67C187.52 160.67 187.58 160.73 187.58 160.8C187.58 160.87 187.52 160.93 187.45 160.93Z" />
		<path id="Layer" class="shp9" d="M185.22 160.62C185.15 160.62 185.09 160.56 185.09 160.49C185.09 160.42 185.15 160.37 185.22 160.37C185.29 160.37 185.34 160.42 185.34 160.49C185.34 160.56 185.29 160.62 185.22 160.62Z" />
		<path id="Layer" class="shp9" d="M185.96 160.8C185.89 160.8 185.83 160.74 185.83 160.67C185.83 160.6 185.89 160.55 185.96 160.55C186.03 160.55 186.08 160.6 186.08 160.67C186.08 160.74 186.03 160.8 185.96 160.8Z" />
		<path id="Layer" class="shp9" d="M183.83 160.37C183.76 160.37 183.7 160.31 183.7 160.24C183.7 160.17 183.76 160.11 183.83 160.11C183.9 160.11 183.96 160.17 183.96 160.24C183.96 160.31 183.9 160.37 183.83 160.37Z" />
		<path id="Layer" class="shp9" d="M184.5 160.49C184.43 160.49 184.37 160.44 184.37 160.37C184.37 160.3 184.43 160.24 184.5 160.24C184.57 160.24 184.62 160.3 184.62 160.37C184.62 160.44 184.57 160.49 184.5 160.49Z" />
		<path id="Layer" class="shp9" d="M183.1 160.11C183.03 160.11 182.97 160.05 182.97 159.98C182.97 159.91 183.03 159.86 183.1 159.86C183.17 159.86 183.23 159.91 183.23 159.98C183.23 160.05 183.17 160.11 183.1 160.11Z" />
		<path id="Layer" class="shp9" d="M191.22 160.55C191.14 160.55 191.09 160.49 191.09 160.42C191.09 160.35 191.14 160.29 191.22 160.29C191.29 160.29 191.34 160.35 191.34 160.42C191.34 160.49 191.29 160.55 191.22 160.55Z" />
		<path id="Layer" class="shp9" d="M189.74 160.8C189.67 160.8 189.62 160.74 189.62 160.67C189.62 160.6 189.67 160.55 189.74 160.55C189.81 160.55 189.87 160.6 189.87 160.67C189.87 160.74 189.81 160.8 189.74 160.8Z" />
		<path id="Layer" class="shp9" d="M188.14 160.93C188.07 160.93 188.02 160.87 188.02 160.8C188.02 160.73 188.07 160.67 188.14 160.67C188.21 160.67 188.27 160.73 188.27 160.8C188.27 160.87 188.21 160.93 188.14 160.93Z" />
		<path id="Layer" class="shp9" d="M186.69 160.93C186.62 160.93 186.56 160.87 186.56 160.8C186.56 160.73 186.62 160.67 186.69 160.67C186.76 160.67 186.82 160.73 186.82 160.8C186.82 160.87 186.76 160.93 186.69 160.93Z" />
	</g>
	<g id="Layer" style="opacity: 0.8">
		<path id="Layer" class="shp9" d="M193.38 160.56C193.31 160.56 193.26 160.5 193.26 160.43C193.26 160.36 193.31 160.3 193.38 160.3C193.45 160.3 193.51 160.36 193.51 160.43C193.51 160.5 193.45 160.56 193.38 160.56Z" />
		<path id="Layer" class="shp9" d="M192.74 160.74C192.67 160.74 192.61 160.68 192.61 160.61C192.61 160.54 192.67 160.48 192.74 160.48C192.81 160.48 192.87 160.54 192.87 160.61C192.87 160.68 192.81 160.74 192.74 160.74Z" />
		<path id="Layer" class="shp9" d="M191.94 160.99C191.87 160.99 191.82 160.93 191.82 160.86C191.82 160.79 191.87 160.74 191.94 160.74C192.01 160.74 192.07 160.79 192.07 160.86C192.07 160.93 192.01 160.99 191.94 160.99Z" />
		<path id="Layer" class="shp9" d="M190.52 161.3C190.45 161.3 190.39 161.24 190.39 161.17C190.39 161.1 190.45 161.04 190.52 161.04C190.59 161.04 190.64 161.1 190.64 161.17C190.64 161.24 190.59 161.3 190.52 161.3Z" />
		<path id="Layer" class="shp9" d="M189.01 161.48C188.94 161.48 188.88 161.42 188.88 161.35C188.88 161.28 188.94 161.23 189.01 161.23C189.08 161.23 189.14 161.28 189.14 161.35C189.14 161.42 189.08 161.48 189.01 161.48Z" />
		<path id="Layer" class="shp9" d="M187.45 161.55C187.38 161.55 187.33 161.49 187.33 161.42C187.33 161.35 187.38 161.3 187.45 161.3C187.52 161.3 187.58 161.35 187.58 161.42C187.58 161.49 187.52 161.55 187.45 161.55Z" />
		<path id="Layer" class="shp9" d="M185.22 161.24C185.15 161.24 185.09 161.19 185.09 161.12C185.09 161.05 185.15 160.99 185.22 160.99C185.29 160.99 185.34 161.05 185.34 161.12C185.34 161.19 185.29 161.24 185.22 161.24Z" />
		<path id="Layer" class="shp9" d="M185.96 161.42C185.89 161.42 185.83 161.37 185.83 161.3C185.83 161.23 185.89 161.17 185.96 161.17C186.03 161.17 186.08 161.23 186.08 161.3C186.08 161.37 186.03 161.42 185.96 161.42Z" />
		<path id="Layer" class="shp9" d="M183.83 160.99C183.76 160.99 183.7 160.93 183.7 160.86C183.7 160.79 183.76 160.74 183.83 160.74C183.9 160.74 183.96 160.79 183.96 160.86C183.96 160.93 183.9 160.99 183.83 160.99Z" />
		<path id="Layer" class="shp9" d="M184.5 161.12C184.43 161.12 184.37 161.06 184.37 160.99C184.37 160.92 184.43 160.86 184.5 160.86C184.57 160.86 184.62 160.92 184.62 160.99C184.62 161.06 184.57 161.12 184.5 161.12Z" />
		<path id="Layer" class="shp9" d="M183.1 160.74C183.03 160.74 182.97 160.68 182.97 160.61C182.97 160.54 183.03 160.48 183.1 160.48C183.17 160.48 183.23 160.54 183.23 160.61C183.23 160.68 183.17 160.74 183.1 160.74Z" />
		<path id="Layer" class="shp9" d="M191.22 161.17C191.14 161.17 191.09 161.11 191.09 161.04C191.09 160.97 191.14 160.92 191.22 160.92C191.29 160.92 191.34 160.97 191.34 161.04C191.34 161.11 191.29 161.17 191.22 161.17Z" />
		<path id="Layer" class="shp9" d="M189.74 161.42C189.67 161.42 189.62 161.37 189.62 161.3C189.62 161.23 189.67 161.17 189.74 161.17C189.81 161.17 189.87 161.23 189.87 161.3C189.87 161.37 189.81 161.42 189.74 161.42Z" />
		<path id="Layer" class="shp9" d="M188.14 161.55C188.07 161.55 188.02 161.49 188.02 161.42C188.02 161.35 188.07 161.3 188.14 161.3C188.21 161.3 188.27 161.35 188.27 161.42C188.27 161.49 188.21 161.55 188.14 161.55Z" />
		<path id="Layer" class="shp9" d="M186.69 161.55C186.62 161.55 186.56 161.49 186.56 161.42C186.56 161.35 186.62 161.3 186.69 161.3C186.76 161.3 186.82 161.35 186.82 161.42C186.82 161.49 186.76 161.55 186.69 161.55Z" />
	</g>
	<g id="Layer" style="opacity: 0.8">
		<path id="Layer" class="shp9" d="M193.38 161.18C193.31 161.18 193.26 161.12 193.26 161.05C193.26 160.98 193.31 160.93 193.38 160.93C193.45 160.93 193.51 160.98 193.51 161.05C193.51 161.12 193.45 161.18 193.38 161.18Z" />
		<path id="Layer" class="shp9" d="M192.74 161.36C192.67 161.36 192.61 161.3 192.61 161.23C192.61 161.16 192.67 161.11 192.74 161.11C192.81 161.11 192.87 161.16 192.87 161.23C192.87 161.3 192.81 161.36 192.74 161.36Z" />
		<path id="Layer" class="shp9" d="M191.94 161.61C191.87 161.61 191.82 161.56 191.82 161.49C191.82 161.42 191.87 161.36 191.94 161.36C192.01 161.36 192.07 161.42 192.07 161.49C192.07 161.56 192.01 161.61 191.94 161.61Z" />
		<path id="Layer" class="shp9" d="M190.52 161.92C190.45 161.92 190.39 161.86 190.39 161.79C190.39 161.72 190.45 161.67 190.52 161.67C190.59 161.67 190.64 161.72 190.64 161.79C190.64 161.86 190.59 161.92 190.52 161.92Z" />
		<path id="Layer" class="shp9" d="M189.01 162.1C188.94 162.1 188.88 162.05 188.88 161.98C188.88 161.91 188.94 161.85 189.01 161.85C189.08 161.85 189.14 161.91 189.14 161.98C189.14 162.05 189.08 162.1 189.01 162.1Z" />
		<path id="Layer" class="shp9" d="M187.45 162.18C187.38 162.18 187.33 162.12 187.33 162.05C187.33 161.98 187.38 161.92 187.45 161.92C187.52 161.92 187.58 161.98 187.58 162.05C187.58 162.12 187.52 162.18 187.45 162.18Z" />
		<path id="Layer" class="shp9" d="M185.22 161.87C185.15 161.87 185.09 161.81 185.09 161.74C185.09 161.67 185.15 161.61 185.22 161.61C185.29 161.61 185.34 161.67 185.34 161.74C185.34 161.81 185.29 161.87 185.22 161.87Z" />
		<path id="Layer" class="shp9" d="M185.96 162.05C185.89 162.05 185.83 161.99 185.83 161.92C185.83 161.85 185.89 161.79 185.96 161.79C186.03 161.79 186.08 161.85 186.08 161.92C186.08 161.99 186.03 162.05 185.96 162.05Z" />
		<path id="Layer" class="shp9" d="M183.83 161.61C183.76 161.61 183.7 161.56 183.7 161.49C183.7 161.42 183.76 161.36 183.83 161.36C183.9 161.36 183.96 161.42 183.96 161.49C183.96 161.56 183.9 161.61 183.83 161.61Z" />
		<path id="Layer" class="shp9" d="M184.5 161.74C184.43 161.74 184.37 161.68 184.37 161.61C184.37 161.54 184.43 161.49 184.5 161.49C184.57 161.49 184.62 161.54 184.62 161.61C184.62 161.68 184.57 161.74 184.5 161.74Z" />
		<path id="Layer" class="shp9" d="M183.1 161.36C183.03 161.36 182.97 161.3 182.97 161.23C182.97 161.16 183.03 161.11 183.1 161.11C183.17 161.11 183.23 161.16 183.23 161.23C183.23 161.3 183.17 161.36 183.1 161.36Z" />
		<path id="Layer" class="shp9" d="M191.22 161.79C191.14 161.79 191.09 161.74 191.09 161.67C191.09 161.6 191.14 161.54 191.22 161.54C191.29 161.54 191.34 161.6 191.34 161.67C191.34 161.74 191.29 161.79 191.22 161.79Z" />
		<path id="Layer" class="shp9" d="M189.74 162.05C189.67 162.05 189.62 161.99 189.62 161.92C189.62 161.85 189.67 161.79 189.74 161.79C189.81 161.79 189.87 161.85 189.87 161.92C189.87 161.99 189.81 162.05 189.74 162.05Z" />
		<path id="Layer" class="shp9" d="M188.14 162.18C188.07 162.18 188.02 162.12 188.02 162.05C188.02 161.98 188.07 161.92 188.14 161.92C188.21 161.92 188.27 161.98 188.27 162.05C188.27 162.12 188.21 162.18 188.14 162.18Z" />
		<path id="Layer" class="shp9" d="M186.69 162.18C186.62 162.18 186.56 162.12 186.56 162.05C186.56 161.98 186.62 161.92 186.69 161.92C186.76 161.92 186.82 161.98 186.82 162.05C186.82 162.12 186.76 162.18 186.69 162.18Z" />
	</g>
	<g id="Layer" style="opacity: 0.8">
		<path id="Layer" class="shp9" d="M193.38 161.8C193.31 161.8 193.26 161.75 193.26 161.68C193.26 161.61 193.31 161.55 193.38 161.55C193.45 161.55 193.51 161.61 193.51 161.68C193.51 161.75 193.45 161.8 193.38 161.8Z" />
		<path id="Layer" class="shp9" d="M192.74 161.98C192.67 161.98 192.61 161.93 192.61 161.86C192.61 161.79 192.67 161.73 192.74 161.73C192.81 161.73 192.87 161.79 192.87 161.86C192.87 161.93 192.81 161.98 192.74 161.98Z" />
		<path id="Layer" class="shp9" d="M191.94 162.24C191.87 162.24 191.82 162.18 191.82 162.11C191.82 162.04 191.87 161.98 191.94 161.98C192.01 161.98 192.07 162.04 192.07 162.11C192.07 162.18 192.01 162.24 191.94 162.24Z" />
		<path id="Layer" class="shp9" d="M190.52 162.55C190.45 162.55 190.39 162.49 190.39 162.42C190.39 162.35 190.45 162.29 190.52 162.29C190.59 162.29 190.64 162.35 190.64 162.42C190.64 162.49 190.59 162.55 190.52 162.55Z" />
		<path id="Layer" class="shp9" d="M189.01 162.73C188.94 162.73 188.88 162.67 188.88 162.6C188.88 162.53 188.94 162.47 189.01 162.47C189.08 162.47 189.14 162.53 189.14 162.6C189.14 162.67 189.08 162.73 189.01 162.73Z" />
		<path id="Layer" class="shp9" d="M187.45 162.8C187.38 162.8 187.33 162.74 187.33 162.67C187.33 162.6 187.38 162.55 187.45 162.55C187.52 162.55 187.58 162.6 187.58 162.67C187.58 162.74 187.52 162.8 187.45 162.8Z" />
		<path id="Layer" class="shp9" d="M185.22 162.49C185.15 162.49 185.09 162.44 185.09 162.37C185.09 162.3 185.15 162.24 185.22 162.24C185.29 162.24 185.34 162.3 185.34 162.37C185.34 162.44 185.29 162.49 185.22 162.49Z" />
		<path id="Layer" class="shp9" d="M185.96 162.67C185.89 162.67 185.83 162.62 185.83 162.55C185.83 162.48 185.89 162.42 185.96 162.42C186.03 162.42 186.08 162.48 186.08 162.55C186.08 162.62 186.03 162.67 185.96 162.67Z" />
		<path id="Layer" class="shp9" d="M183.83 162.24C183.76 162.24 183.7 162.18 183.7 162.11C183.7 162.04 183.76 161.98 183.83 161.98C183.9 161.98 183.96 162.04 183.96 162.11C183.96 162.18 183.9 162.24 183.83 162.24Z" />
		<path id="Layer" class="shp9" d="M184.5 162.37C184.43 162.37 184.37 162.31 184.37 162.24C184.37 162.17 184.43 162.11 184.5 162.11C184.57 162.11 184.62 162.17 184.62 162.24C184.62 162.31 184.57 162.37 184.5 162.37Z" />
		<path id="Layer" class="shp9" d="M183.1 161.98C183.03 161.98 182.97 161.93 182.97 161.86C182.97 161.79 183.03 161.73 183.1 161.73C183.17 161.73 183.23 161.79 183.23 161.86C183.23 161.93 183.17 161.98 183.1 161.98Z" />
		<path id="Layer" class="shp9" d="M191.22 162.42C191.14 162.42 191.09 162.36 191.09 162.29C191.09 162.22 191.14 162.17 191.22 162.17C191.29 162.17 191.34 162.22 191.34 162.29C191.34 162.36 191.29 162.42 191.22 162.42Z" />
		<path id="Layer" class="shp9" d="M189.74 162.67C189.67 162.67 189.62 162.62 189.62 162.55C189.62 162.48 189.67 162.42 189.74 162.42C189.81 162.42 189.87 162.48 189.87 162.55C189.87 162.62 189.81 162.67 189.74 162.67Z" />
		<path id="Layer" class="shp9" d="M188.14 162.8C188.07 162.8 188.02 162.74 188.02 162.67C188.02 162.6 188.07 162.55 188.14 162.55C188.21 162.55 188.27 162.6 188.27 162.67C188.27 162.74 188.21 162.8 188.14 162.8Z" />
		<path id="Layer" class="shp9" d="M186.69 162.8C186.62 162.8 186.56 162.74 186.56 162.67C186.56 162.6 186.62 162.55 186.69 162.55C186.76 162.55 186.82 162.6 186.82 162.67C186.82 162.74 186.76 162.8 186.69 162.8Z" />
	</g>
	<g id="Layer" style="opacity: 0.8">
		<path id="Layer" class="shp9" d="M193.38 162.43C193.31 162.43 193.26 162.37 193.26 162.3C193.26 162.23 193.31 162.18 193.38 162.18C193.45 162.18 193.51 162.23 193.51 162.3C193.51 162.37 193.45 162.43 193.38 162.43Z" />
		<path id="Layer" class="shp9" d="M192.74 162.61C192.67 162.61 192.61 162.55 192.61 162.48C192.61 162.41 192.67 162.36 192.74 162.36C192.81 162.36 192.87 162.41 192.87 162.48C192.87 162.55 192.81 162.61 192.74 162.61Z" />
		<path id="Layer" class="shp9" d="M191.94 162.86C191.87 162.86 191.82 162.81 191.82 162.74C191.82 162.67 191.87 162.61 191.94 162.61C192.01 162.61 192.07 162.67 192.07 162.74C192.07 162.81 192.01 162.86 191.94 162.86Z" />
		<path id="Layer" class="shp9" d="M190.52 163.17C190.45 163.17 190.39 163.11 190.39 163.04C190.39 162.97 190.45 162.92 190.52 162.92C190.59 162.92 190.64 162.97 190.64 163.04C190.64 163.11 190.59 163.17 190.52 163.17Z" />
		<path id="Layer" class="shp9" d="M189.01 163.35C188.94 163.35 188.88 163.3 188.88 163.23C188.88 163.16 188.94 163.1 189.01 163.1C189.08 163.1 189.14 163.16 189.14 163.23C189.14 163.3 189.08 163.35 189.01 163.35Z" />
		<path id="Layer" class="shp9" d="M187.45 163.42C187.38 163.42 187.33 163.37 187.33 163.3C187.33 163.23 187.38 163.17 187.45 163.17C187.52 163.17 187.58 163.23 187.58 163.3C187.58 163.37 187.52 163.42 187.45 163.42Z" />
		<path id="Layer" class="shp9" d="M185.22 163.12C185.15 163.12 185.09 163.06 185.09 162.99C185.09 162.92 185.15 162.86 185.22 162.86C185.29 162.86 185.34 162.92 185.34 162.99C185.34 163.06 185.29 163.12 185.22 163.12Z" />
		<path id="Layer" class="shp9" d="M185.96 163.3C185.89 163.3 185.83 163.24 185.83 163.17C185.83 163.1 185.89 163.04 185.96 163.04C186.03 163.04 186.08 163.1 186.08 163.17C186.08 163.24 186.03 163.3 185.96 163.3Z" />
		<path id="Layer" class="shp9" d="M183.83 162.86C183.76 162.86 183.7 162.81 183.7 162.74C183.7 162.67 183.76 162.61 183.83 162.61C183.9 162.61 183.96 162.67 183.96 162.74C183.96 162.81 183.9 162.86 183.83 162.86Z" />
		<path id="Layer" class="shp9" d="M184.5 162.99C184.43 162.99 184.37 162.93 184.37 162.86C184.37 162.79 184.43 162.74 184.5 162.74C184.57 162.74 184.62 162.79 184.62 162.86C184.62 162.93 184.57 162.99 184.5 162.99Z" />
		<path id="Layer" class="shp9" d="M183.1 162.61C183.03 162.61 182.97 162.55 182.97 162.48C182.97 162.41 183.03 162.36 183.1 162.36C183.17 162.36 183.23 162.41 183.23 162.48C183.23 162.55 183.17 162.61 183.1 162.61Z" />
		<path id="Layer" class="shp9" d="M191.22 163.04C191.14 163.04 191.09 162.99 191.09 162.92C191.09 162.85 191.14 162.79 191.22 162.79C191.29 162.79 191.34 162.85 191.34 162.92C191.34 162.99 191.29 163.04 191.22 163.04Z" />
		<path id="Layer" class="shp9" d="M189.74 163.3C189.67 163.3 189.62 163.24 189.62 163.17C189.62 163.1 189.67 163.04 189.74 163.04C189.81 163.04 189.87 163.1 189.87 163.17C189.87 163.24 189.81 163.3 189.74 163.3Z" />
		<path id="Layer" class="shp9" d="M188.14 163.42C188.07 163.42 188.02 163.37 188.02 163.3C188.02 163.23 188.07 163.17 188.14 163.17C188.21 163.17 188.27 163.23 188.27 163.3C188.27 163.37 188.21 163.42 188.14 163.42Z" />
		<path id="Layer" class="shp9" d="M186.69 163.42C186.62 163.42 186.56 163.37 186.56 163.3C186.56 163.23 186.62 163.17 186.69 163.17C186.76 163.17 186.82 163.23 186.82 163.3C186.82 163.37 186.76 163.42 186.69 163.42Z" />
	</g>
	<g id="Layer" style="opacity: 0.8">
		<path id="Layer" class="shp9" d="M193.38 163.05C193.31 163.05 193.26 163 193.26 162.93C193.26 162.86 193.31 162.8 193.38 162.8C193.45 162.8 193.51 162.86 193.51 162.93C193.51 163 193.45 163.05 193.38 163.05Z" />
		<path id="Layer" class="shp9" d="M192.74 163.23C192.67 163.23 192.61 163.18 192.61 163.11C192.61 163.04 192.67 162.98 192.74 162.98C192.81 162.98 192.87 163.04 192.87 163.11C192.87 163.18 192.81 163.23 192.74 163.23Z" />
		<path id="Layer" class="shp9" d="M191.94 163.49C191.87 163.49 191.82 163.43 191.82 163.36C191.82 163.29 191.87 163.23 191.94 163.23C192.01 163.23 192.07 163.29 192.07 163.36C192.07 163.43 192.01 163.49 191.94 163.49Z" />
		<path id="Layer" class="shp9" d="M190.52 163.79C190.45 163.79 190.39 163.74 190.39 163.67C190.39 163.6 190.45 163.54 190.52 163.54C190.59 163.54 190.64 163.6 190.64 163.67C190.64 163.74 190.59 163.79 190.52 163.79Z" />
		<path id="Layer" class="shp9" d="M189.01 163.98C188.94 163.98 188.88 163.92 188.88 163.85C188.88 163.78 188.94 163.72 189.01 163.72C189.08 163.72 189.14 163.78 189.14 163.85C189.14 163.92 189.08 163.98 189.01 163.98Z" />
		<path id="Layer" class="shp9" d="M187.45 164.05C187.38 164.05 187.33 163.99 187.33 163.92C187.33 163.85 187.38 163.79 187.45 163.79C187.52 163.79 187.58 163.85 187.58 163.92C187.58 163.99 187.52 164.05 187.45 164.05Z" />
		<path id="Layer" class="shp9" d="M185.22 163.74C185.15 163.74 185.09 163.68 185.09 163.61C185.09 163.54 185.15 163.49 185.22 163.49C185.29 163.49 185.34 163.54 185.34 163.61C185.34 163.68 185.29 163.74 185.22 163.74Z" />
		<path id="Layer" class="shp9" d="M185.96 163.92C185.89 163.92 185.83 163.86 185.83 163.79C185.83 163.72 185.89 163.67 185.96 163.67C186.03 163.67 186.08 163.72 186.08 163.79C186.08 163.86 186.03 163.92 185.96 163.92Z" />
		<path id="Layer" class="shp9" d="M183.83 163.49C183.76 163.49 183.7 163.43 183.7 163.36C183.7 163.29 183.76 163.23 183.83 163.23C183.9 163.23 183.96 163.29 183.96 163.36C183.96 163.43 183.9 163.49 183.83 163.49Z" />
		<path id="Layer" class="shp9" d="M184.5 163.61C184.43 163.61 184.37 163.56 184.37 163.49C184.37 163.42 184.43 163.36 184.5 163.36C184.57 163.36 184.62 163.42 184.62 163.49C184.62 163.56 184.57 163.61 184.5 163.61Z" />
		<path id="Layer" class="shp9" d="M183.1 163.23C183.03 163.23 182.97 163.18 182.97 163.11C182.97 163.04 183.03 162.98 183.1 162.98C183.17 162.98 183.23 163.04 183.23 163.11C183.23 163.18 183.17 163.23 183.1 163.23Z" />
		<path id="Layer" class="shp9" d="M191.22 163.67C191.14 163.67 191.09 163.61 191.09 163.54C191.09 163.47 191.14 163.41 191.22 163.41C191.29 163.41 191.34 163.47 191.34 163.54C191.34 163.61 191.29 163.67 191.22 163.67Z" />
		<path id="Layer" class="shp9" d="M189.74 163.92C189.67 163.92 189.62 163.86 189.62 163.79C189.62 163.72 189.67 163.67 189.74 163.67C189.81 163.67 189.87 163.72 189.87 163.79C189.87 163.86 189.81 163.92 189.74 163.92Z" />
		<path id="Layer" class="shp9" d="M188.14 164.05C188.07 164.05 188.02 163.99 188.02 163.92C188.02 163.85 188.07 163.79 188.14 163.79C188.21 163.79 188.27 163.85 188.27 163.92C188.27 163.99 188.21 164.05 188.14 164.05Z" />
		<path id="Layer" class="shp9" d="M186.69 164.05C186.62 164.05 186.56 163.99 186.56 163.92C186.56 163.85 186.62 163.79 186.69 163.79C186.76 163.79 186.82 163.85 186.82 163.92C186.82 163.99 186.76 164.05 186.69 164.05Z" />
	</g>
	<g id="Layer" style="opacity: 0.8">
		<path id="Layer" class="shp9" d="M193.38 163.68C193.31 163.68 193.26 163.62 193.26 163.55C193.26 163.48 193.31 163.42 193.38 163.42C193.45 163.42 193.51 163.48 193.51 163.55C193.51 163.62 193.45 163.68 193.38 163.68Z" />
		<path id="Layer" class="shp9" d="M192.74 163.86C192.67 163.86 192.61 163.8 192.61 163.73C192.61 163.66 192.67 163.6 192.74 163.6C192.81 163.6 192.87 163.66 192.87 163.73C192.87 163.8 192.81 163.86 192.74 163.86Z" />
		<path id="Layer" class="shp9" d="M191.94 164.11C191.87 164.11 191.82 164.06 191.82 163.98C191.82 163.91 191.87 163.86 191.94 163.86C192.01 163.86 192.07 163.91 192.07 163.98C192.07 164.06 192.01 164.11 191.94 164.11Z" />
		<path id="Layer" class="shp9" d="M190.52 164.42C190.45 164.42 190.39 164.36 190.39 164.29C190.39 164.22 190.45 164.17 190.52 164.17C190.59 164.17 190.64 164.22 190.64 164.29C190.64 164.36 190.59 164.42 190.52 164.42Z" />
		<path id="Layer" class="shp9" d="M189.01 164.6C188.94 164.6 188.88 164.54 188.88 164.47C188.88 164.4 188.94 164.35 189.01 164.35C189.08 164.35 189.14 164.4 189.14 164.47C189.14 164.54 189.08 164.6 189.01 164.6Z" />
		<path id="Layer" class="shp9" d="M187.45 164.67C187.38 164.67 187.33 164.62 187.33 164.55C187.33 164.48 187.38 164.42 187.45 164.42C187.52 164.42 187.58 164.48 187.58 164.55C187.58 164.62 187.52 164.67 187.45 164.67Z" />
		<path id="Layer" class="shp9" d="M185.22 164.37C185.15 164.37 185.09 164.31 185.09 164.24C185.09 164.17 185.15 164.11 185.22 164.11C185.29 164.11 185.34 164.17 185.34 164.24C185.34 164.31 185.29 164.37 185.22 164.37Z" />
		<path id="Layer" class="shp9" d="M185.96 164.55C185.89 164.55 185.83 164.49 185.83 164.42C185.83 164.35 185.89 164.29 185.96 164.29C186.03 164.29 186.08 164.35 186.08 164.42C186.08 164.49 186.03 164.55 185.96 164.55Z" />
		<path id="Layer" class="shp9" d="M183.83 164.11C183.76 164.11 183.7 164.06 183.7 163.98C183.7 163.91 183.76 163.86 183.83 163.86C183.9 163.86 183.96 163.91 183.96 163.98C183.96 164.06 183.9 164.11 183.83 164.11Z" />
		<path id="Layer" class="shp9" d="M184.5 164.24C184.43 164.24 184.37 164.18 184.37 164.11C184.37 164.04 184.43 163.98 184.5 163.98C184.57 163.98 184.62 164.04 184.62 164.11C184.62 164.18 184.57 164.24 184.5 164.24Z" />
		<path id="Layer" class="shp9" d="M183.1 163.86C183.03 163.86 182.97 163.8 182.97 163.73C182.97 163.66 183.03 163.6 183.1 163.6C183.17 163.6 183.23 163.66 183.23 163.73C183.23 163.8 183.17 163.86 183.1 163.86Z" />
		<path id="Layer" class="shp9" d="M191.22 164.29C191.14 164.29 191.09 164.24 191.09 164.17C191.09 164.1 191.14 164.04 191.22 164.04C191.29 164.04 191.34 164.1 191.34 164.17C191.34 164.24 191.29 164.29 191.22 164.29Z" />
		<path id="Layer" class="shp9" d="M189.74 164.55C189.67 164.55 189.62 164.49 189.62 164.42C189.62 164.35 189.67 164.29 189.74 164.29C189.81 164.29 189.87 164.35 189.87 164.42C189.87 164.49 189.81 164.55 189.74 164.55Z" />
		<path id="Layer" class="shp9" d="M188.14 164.67C188.07 164.67 188.02 164.62 188.02 164.55C188.02 164.48 188.07 164.42 188.14 164.42C188.21 164.42 188.27 164.48 188.27 164.55C188.27 164.62 188.21 164.67 188.14 164.67Z" />
		<path id="Layer" class="shp9" d="M186.69 164.67C186.62 164.67 186.56 164.62 186.56 164.55C186.56 164.48 186.62 164.42 186.69 164.42C186.76 164.42 186.82 164.48 186.82 164.55C186.82 164.62 186.76 164.67 186.69 164.67Z" />
	</g>
	<g id="Layer" style="opacity: 0.8">
		<path id="Layer" class="shp9" d="M193.38 164.3C193.31 164.3 193.26 164.25 193.26 164.18C193.26 164.11 193.31 164.05 193.38 164.05C193.45 164.05 193.51 164.11 193.51 164.18C193.51 164.25 193.45 164.3 193.38 164.3Z" />
		<path id="Layer" class="shp9" d="M192.74 164.48C192.67 164.48 192.61 164.43 192.61 164.36C192.61 164.29 192.67 164.23 192.74 164.23C192.81 164.23 192.87 164.29 192.87 164.36C192.87 164.43 192.81 164.48 192.74 164.48Z" />
		<path id="Layer" class="shp9" d="M191.94 164.74C191.87 164.74 191.82 164.68 191.82 164.61C191.82 164.54 191.87 164.48 191.94 164.48C192.01 164.48 192.07 164.54 192.07 164.61C192.07 164.68 192.01 164.74 191.94 164.74Z" />
		<path id="Layer" class="shp9" d="M190.52 165.04C190.45 165.04 190.39 164.99 190.39 164.92C190.39 164.85 190.45 164.79 190.52 164.79C190.59 164.79 190.64 164.85 190.64 164.92C190.64 164.99 190.59 165.04 190.52 165.04Z" />
		<path id="Layer" class="shp9" d="M189.01 165.23C188.94 165.23 188.88 165.17 188.88 165.1C188.88 165.03 188.94 164.97 189.01 164.97C189.08 164.97 189.14 165.03 189.14 165.1C189.14 165.17 189.08 165.23 189.01 165.23Z" />
		<path id="Layer" class="shp9" d="M187.45 165.3C187.38 165.3 187.33 165.24 187.33 165.17C187.33 165.1 187.38 165.04 187.45 165.04C187.52 165.04 187.58 165.1 187.58 165.17C187.58 165.24 187.52 165.3 187.45 165.3Z" />
		<path id="Layer" class="shp9" d="M185.22 164.99C185.15 164.99 185.09 164.93 185.09 164.86C185.09 164.79 185.15 164.74 185.22 164.74C185.29 164.74 185.34 164.79 185.34 164.86C185.34 164.93 185.29 164.99 185.22 164.99Z" />
		<path id="Layer" class="shp9" d="M185.96 165.17C185.89 165.17 185.83 165.11 185.83 165.04C185.83 164.97 185.89 164.92 185.96 164.92C186.03 164.92 186.08 164.97 186.08 165.04C186.08 165.11 186.03 165.17 185.96 165.17Z" />
		<path id="Layer" class="shp9" d="M183.83 164.74C183.76 164.74 183.7 164.68 183.7 164.61C183.7 164.54 183.76 164.48 183.83 164.48C183.9 164.48 183.96 164.54 183.96 164.61C183.96 164.68 183.9 164.74 183.83 164.74Z" />
		<path id="Layer" class="shp9" d="M184.5 164.86C184.43 164.86 184.37 164.81 184.37 164.74C184.37 164.67 184.43 164.61 184.5 164.61C184.57 164.61 184.62 164.67 184.62 164.74C184.62 164.81 184.57 164.86 184.5 164.86Z" />
		<path id="Layer" class="shp9" d="M183.1 164.48C183.03 164.48 182.97 164.43 182.97 164.36C182.97 164.29 183.03 164.23 183.1 164.23C183.17 164.23 183.23 164.29 183.23 164.36C183.23 164.43 183.17 164.48 183.1 164.48Z" />
		<path id="Layer" class="shp9" d="M191.22 164.92C191.14 164.92 191.09 164.86 191.09 164.79C191.09 164.72 191.14 164.66 191.22 164.66C191.29 164.66 191.34 164.72 191.34 164.79C191.34 164.86 191.29 164.92 191.22 164.92Z" />
		<path id="Layer" class="shp9" d="M189.74 165.17C189.67 165.17 189.62 165.11 189.62 165.04C189.62 164.97 189.67 164.92 189.74 164.92C189.81 164.92 189.87 164.97 189.87 165.04C189.87 165.11 189.81 165.17 189.74 165.17Z" />
		<path id="Layer" class="shp9" d="M188.14 165.3C188.07 165.3 188.02 165.24 188.02 165.17C188.02 165.1 188.07 165.04 188.14 165.04C188.21 165.04 188.27 165.1 188.27 165.17C188.27 165.24 188.21 165.3 188.14 165.3Z" />
		<path id="Layer" class="shp9" d="M186.69 165.3C186.62 165.3 186.56 165.24 186.56 165.17C186.56 165.1 186.62 165.04 186.69 165.04C186.76 165.04 186.82 165.1 186.82 165.17C186.82 165.24 186.76 165.3 186.69 165.3Z" />
	</g>
	<g id="Layer" style="opacity: 0.8">
		<path id="Layer" class="shp9" d="M193.38 164.93C193.31 164.93 193.26 164.87 193.26 164.8C193.26 164.73 193.31 164.67 193.38 164.67C193.45 164.67 193.51 164.73 193.51 164.8C193.51 164.87 193.45 164.93 193.38 164.93Z" />
		<path id="Layer" class="shp9" d="M192.74 165.11C192.67 165.11 192.61 165.05 192.61 164.98C192.61 164.91 192.67 164.85 192.74 164.85C192.81 164.85 192.87 164.91 192.87 164.98C192.87 165.05 192.81 165.11 192.74 165.11Z" />
		<path id="Layer" class="shp9" d="M191.94 165.36C191.87 165.36 191.82 165.3 191.82 165.23C191.82 165.16 191.87 165.11 191.94 165.11C192.01 165.11 192.07 165.16 192.07 165.23C192.07 165.3 192.01 165.36 191.94 165.36Z" />
		<path id="Layer" class="shp9" d="M190.52 165.67C190.45 165.67 190.39 165.61 190.39 165.54C190.39 165.47 190.45 165.41 190.52 165.41C190.59 165.41 190.64 165.47 190.64 165.54C190.64 165.61 190.59 165.67 190.52 165.67Z" />
		<path id="Layer" class="shp9" d="M189.01 165.85C188.94 165.85 188.88 165.79 188.88 165.72C188.88 165.65 188.94 165.6 189.01 165.6C189.08 165.6 189.14 165.65 189.14 165.72C189.14 165.79 189.08 165.85 189.01 165.85Z" />
		<path id="Layer" class="shp9" d="M187.45 165.92C187.38 165.92 187.33 165.86 187.33 165.79C187.33 165.72 187.38 165.67 187.45 165.67C187.52 165.67 187.58 165.72 187.58 165.79C187.58 165.86 187.52 165.92 187.45 165.92Z" />
		<path id="Layer" class="shp9" d="M185.22 165.61C185.15 165.61 185.09 165.56 185.09 165.49C185.09 165.42 185.15 165.36 185.22 165.36C185.29 165.36 185.34 165.42 185.34 165.49C185.34 165.56 185.29 165.61 185.22 165.61Z" />
		<path id="Layer" class="shp9" d="M185.96 165.79C185.89 165.79 185.83 165.74 185.83 165.67C185.83 165.6 185.89 165.54 185.96 165.54C186.03 165.54 186.08 165.6 186.08 165.67C186.08 165.74 186.03 165.79 185.96 165.79Z" />
		<path id="Layer" class="shp9" d="M183.83 165.36C183.76 165.36 183.7 165.3 183.7 165.23C183.7 165.16 183.76 165.11 183.83 165.11C183.9 165.11 183.96 165.16 183.96 165.23C183.96 165.3 183.9 165.36 183.83 165.36Z" />
		<path id="Layer" class="shp9" d="M184.5 165.49C184.43 165.49 184.37 165.43 184.37 165.36C184.37 165.29 184.43 165.23 184.5 165.23C184.57 165.23 184.62 165.29 184.62 165.36C184.62 165.43 184.57 165.49 184.5 165.49Z" />
		<path id="Layer" class="shp9" d="M183.1 165.11C183.03 165.11 182.97 165.05 182.97 164.98C182.97 164.91 183.03 164.85 183.1 164.85C183.17 164.85 183.23 164.91 183.23 164.98C183.23 165.05 183.17 165.11 183.1 165.11Z" />
		<path id="Layer" class="shp9" d="M191.22 165.54C191.14 165.54 191.09 165.48 191.09 165.41C191.09 165.34 191.14 165.29 191.22 165.29C191.29 165.29 191.34 165.34 191.34 165.41C191.34 165.48 191.29 165.54 191.22 165.54Z" />
		<path id="Layer" class="shp9" d="M189.74 165.79C189.67 165.79 189.62 165.74 189.62 165.67C189.62 165.6 189.67 165.54 189.74 165.54C189.81 165.54 189.87 165.6 189.87 165.67C189.87 165.74 189.81 165.79 189.74 165.79Z" />
		<path id="Layer" class="shp9" d="M188.14 165.92C188.07 165.92 188.02 165.86 188.02 165.79C188.02 165.72 188.07 165.67 188.14 165.67C188.21 165.67 188.27 165.72 188.27 165.79C188.27 165.86 188.21 165.92 188.14 165.92Z" />
		<path id="Layer" class="shp9" d="M186.69 165.92C186.62 165.92 186.56 165.86 186.56 165.79C186.56 165.72 186.62 165.67 186.69 165.67C186.76 165.67 186.82 165.72 186.82 165.79C186.82 165.86 186.76 165.92 186.69 165.92Z" />
	</g>
	<g id="Layer" style="opacity: 0.8">
		<path id="Layer" class="shp9" d="M193.38 165.55C193.31 165.55 193.26 165.49 193.26 165.42C193.26 165.35 193.31 165.3 193.38 165.3C193.45 165.3 193.51 165.35 193.51 165.42C193.51 165.49 193.45 165.55 193.38 165.55Z" />
		<path id="Layer" class="shp9" d="M192.74 165.73C192.67 165.73 192.61 165.67 192.61 165.6C192.61 165.53 192.67 165.48 192.74 165.48C192.81 165.48 192.87 165.53 192.87 165.6C192.87 165.67 192.81 165.73 192.74 165.73Z" />
		<path id="Layer" class="shp9" d="M191.94 165.98C191.87 165.98 191.82 165.93 191.82 165.86C191.82 165.79 191.87 165.73 191.94 165.73C192.01 165.73 192.07 165.79 192.07 165.86C192.07 165.93 192.01 165.98 191.94 165.98Z" />
		<path id="Layer" class="shp9" d="M190.52 166.29C190.45 166.29 190.39 166.24 190.39 166.17C190.39 166.1 190.45 166.04 190.52 166.04C190.59 166.04 190.64 166.1 190.64 166.17C190.64 166.24 190.59 166.29 190.52 166.29Z" />
		<path id="Layer" class="shp9" d="M189.01 166.47C188.94 166.47 188.88 166.42 188.88 166.35C188.88 166.28 188.94 166.22 189.01 166.22C189.08 166.22 189.14 166.28 189.14 166.35C189.14 166.42 189.08 166.47 189.01 166.47Z" />
		<path id="Layer" class="shp9" d="M187.45 166.55C187.38 166.55 187.33 166.49 187.33 166.42C187.33 166.35 187.38 166.29 187.45 166.29C187.52 166.29 187.58 166.35 187.58 166.42C187.58 166.49 187.52 166.55 187.45 166.55Z" />
		<path id="Layer" class="shp9" d="M185.22 166.24C185.15 166.24 185.09 166.18 185.09 166.11C185.09 166.04 185.15 165.98 185.22 165.98C185.29 165.98 185.34 166.04 185.34 166.11C185.34 166.18 185.29 166.24 185.22 166.24Z" />
		<path id="Layer" class="shp9" d="M185.96 166.42C185.89 166.42 185.83 166.36 185.83 166.29C185.83 166.22 185.89 166.17 185.96 166.17C186.03 166.17 186.08 166.22 186.08 166.29C186.08 166.36 186.03 166.42 185.96 166.42Z" />
		<path id="Layer" class="shp9" d="M183.83 165.98C183.76 165.98 183.7 165.93 183.7 165.86C183.7 165.79 183.76 165.73 183.83 165.73C183.9 165.73 183.96 165.79 183.96 165.86C183.96 165.93 183.9 165.98 183.83 165.98Z" />
		<path id="Layer" class="shp9" d="M184.5 166.11C184.43 166.11 184.37 166.06 184.37 165.98C184.37 165.91 184.43 165.86 184.5 165.86C184.57 165.86 184.62 165.91 184.62 165.98C184.62 166.06 184.57 166.11 184.5 166.11Z" />
		<path id="Layer" class="shp9" d="M183.1 165.73C183.03 165.73 182.97 165.67 182.97 165.6C182.97 165.53 183.03 165.48 183.1 165.48C183.17 165.48 183.23 165.53 183.23 165.6C183.23 165.67 183.17 165.73 183.1 165.73Z" />
		<path id="Layer" class="shp9" d="M191.22 166.17C191.14 166.17 191.09 166.11 191.09 166.04C191.09 165.97 191.14 165.91 191.22 165.91C191.29 165.91 191.34 165.97 191.34 166.04C191.34 166.11 191.29 166.17 191.22 166.17Z" />
		<path id="Layer" class="shp9" d="M189.74 166.42C189.67 166.42 189.62 166.36 189.62 166.29C189.62 166.22 189.67 166.17 189.74 166.17C189.81 166.17 189.87 166.22 189.87 166.29C189.87 166.36 189.81 166.42 189.74 166.42Z" />
		<path id="Layer" class="shp9" d="M188.14 166.55C188.07 166.55 188.02 166.49 188.02 166.42C188.02 166.35 188.07 166.29 188.14 166.29C188.21 166.29 188.27 166.35 188.27 166.42C188.27 166.49 188.21 166.55 188.14 166.55Z" />
		<path id="Layer" class="shp9" d="M186.69 166.55C186.62 166.55 186.56 166.49 186.56 166.42C186.56 166.35 186.62 166.29 186.69 166.29C186.76 166.29 186.82 166.35 186.82 166.42C186.82 166.49 186.76 166.55 186.69 166.55Z" />
	</g>
</svg>