<svg version="1.2" baseProfile="tiny-ps" xmlns="http://www.w3.org/2000/svg" viewBox="0 0 200 145" width="200" height="145">
	<title>education-svg</title>
	<style>
		tspan { white-space:pre }
		.shp0 { fill: #f2f2f2 } 
		.shp1 { fill: #eba5ce } 
		.shp2 { fill: #cccccc } 
		.shp3 { fill: #ffb8b8 } 
		.shp4 { fill: #2f2e41 } 
		.shp5 { fill: #3f3d56 } 
		.shp6 { opacity: 0.2;fill: #000000 } 
	</style>
	<path id="Layer" class="shp0" d="M127.45 108.56L127.45 143.46L39.89 143.46C29.92 143.46 21.81 135.63 21.81 126.01C21.81 116.39 29.92 108.56 39.89 108.56L127.45 108.56Z" />
	<path id="Layer" class="shp1" d="M129.6 143.2C129.6 143.37 129.57 143.55 129.5 143.71C129.43 143.88 129.33 144.02 129.21 144.15C129.08 144.27 128.93 144.37 128.77 144.43C128.61 144.51 128.43 144.54 128.25 144.54L38.34 144.54C33.45 144.54 28.77 142.6 25.31 139.15C21.86 135.7 19.92 131.03 19.92 126.14C19.92 121.27 21.86 116.59 25.31 113.14C28.77 109.69 33.45 107.75 38.34 107.75L128.25 107.75C128.61 107.75 128.95 107.89 129.21 108.14C129.46 108.4 129.6 108.74 129.6 109.1C129.6 109.45 129.46 109.79 129.21 110.05C128.95 110.3 128.61 110.44 128.25 110.44L38.34 110.44C34.17 110.44 30.17 112.1 27.22 115.04C24.27 117.98 22.61 121.98 22.61 126.14C22.61 130.31 24.27 134.3 27.22 137.25C30.17 140.2 34.17 141.85 38.34 141.85L128.25 141.85C128.43 141.85 128.61 141.89 128.77 141.95C128.93 142.03 129.08 142.13 129.21 142.25C129.33 142.37 129.43 142.52 129.5 142.69C129.57 142.84 129.6 143.02 129.6 143.2Z" />
	<path id="Layer" class="shp2" d="M127.45 116.61L33.37 116.61C33.29 116.61 33.23 116.59 33.17 116.53C33.13 116.49 33.09 116.42 33.09 116.35C33.09 116.27 33.13 116.21 33.17 116.15C33.23 116.11 33.29 116.08 33.37 116.08L127.45 116.08C127.52 116.08 127.59 116.11 127.64 116.15C127.69 116.21 127.72 116.27 127.72 116.35C127.72 116.42 127.69 116.49 127.64 116.53C127.59 116.59 127.52 116.61 127.45 116.61Z" />
	<path id="Layer" class="shp2" d="M127.45 123.06L33.37 123.06C33.29 123.06 33.23 123.03 33.17 122.98C33.13 122.93 33.09 122.86 33.09 122.79C33.09 122.72 33.13 122.65 33.17 122.6C33.23 122.55 33.29 122.52 33.37 122.52L127.45 122.52C127.52 122.52 127.59 122.55 127.64 122.6C127.69 122.65 127.72 122.72 127.72 122.79C127.72 122.86 127.69 122.93 127.64 122.98C127.59 123.03 127.52 123.06 127.45 123.06Z" />
	<path id="Layer" class="shp2" d="M127.45 129.5L33.37 129.5C33.29 129.5 33.23 129.48 33.17 129.42C33.13 129.38 33.09 129.3 33.09 129.24C33.09 129.16 33.13 129.1 33.17 129.04C33.23 129 33.29 128.96 33.37 128.96L127.45 128.96C127.52 128.96 127.59 129 127.64 129.04C127.69 129.1 127.72 129.16 127.72 129.24C127.72 129.3 127.69 129.38 127.64 129.42C127.59 129.48 127.52 129.5 127.45 129.5Z" />
	<path id="Layer" class="shp2" d="M127.45 135.95L33.37 135.95C33.29 135.95 33.23 135.92 33.17 135.87C33.13 135.82 33.09 135.75 33.09 135.68C33.09 135.61 33.13 135.54 33.17 135.49C33.23 135.44 33.29 135.41 33.37 135.41L127.45 135.41C127.52 135.41 127.59 135.44 127.64 135.49C127.69 135.54 127.72 135.61 127.72 135.68C127.72 135.75 127.69 135.82 127.64 135.87C127.59 135.92 127.52 135.95 127.45 135.95Z" />
	<path id="Layer" class="shp0" d="M195.11 115.13L173.19 142.31L105.01 87.44C97.25 81.19 95.85 70.01 101.89 62.51C107.93 55.01 119.17 54 126.94 60.25L195.11 115.13Z" />
	<path id="Layer" class="shp2" d="M175.03 143.45C174.92 143.59 174.79 143.7 174.63 143.78C174.47 143.87 174.31 143.92 174.13 143.94C173.95 143.96 173.78 143.94 173.61 143.9C173.44 143.84 173.28 143.76 173.15 143.65L103.13 87.3C99.32 84.24 96.89 79.79 96.37 74.94C95.85 70.09 97.27 65.24 100.34 61.43C103.41 57.63 107.85 55.21 112.71 54.69C117.57 54.17 122.43 55.59 126.23 58.65L196.25 115.01C196.53 115.23 196.71 115.55 196.75 115.91C196.78 116.27 196.68 116.62 196.45 116.9C196.23 117.17 195.91 117.35 195.55 117.39C195.19 117.42 194.84 117.32 194.57 117.1L124.55 60.74C121.3 58.13 117.14 56.91 112.99 57.35C108.85 57.8 105.05 59.87 102.43 63.11C99.81 66.36 98.59 70.51 99.04 74.66C99.49 78.8 101.56 82.6 104.81 85.2L174.83 141.56C174.97 141.67 175.08 141.81 175.17 141.97C175.25 142.12 175.31 142.29 175.32 142.47C175.34 142.64 175.33 142.82 175.27 142.98C175.23 143.16 175.15 143.31 175.03 143.45Z" />
	<path id="Layer" class="shp2" d="M190.05 121.4L116.79 62.44C116.74 62.39 116.7 62.32 116.69 62.26C116.69 62.18 116.71 62.11 116.75 62.06C116.8 62 116.86 61.96 116.93 61.96C117.01 61.95 117.07 61.97 117.13 62.02L190.39 120.98C190.45 121.03 190.49 121.09 190.49 121.16C190.5 121.23 190.48 121.31 190.43 121.36C190.39 121.41 190.33 121.45 190.25 121.46C190.18 121.47 190.11 121.45 190.05 121.4L190.05 121.4Z" />
	<path id="Layer" class="shp2" d="M186.01 126.42L112.75 67.45C112.69 67.41 112.65 67.35 112.65 67.27C112.64 67.21 112.66 67.13 112.71 67.08C112.75 67.02 112.81 66.99 112.89 66.98C112.95 66.97 113.03 66.99 113.08 67.03L186.35 126C186.4 126.04 186.44 126.11 186.45 126.18C186.45 126.26 186.43 126.32 186.39 126.38C186.34 126.44 186.28 126.47 186.21 126.48C186.13 126.48 186.07 126.46 186.01 126.42Z" />
	<path id="Layer" class="shp2" d="M181.96 131.44L108.7 72.47C108.64 72.43 108.61 72.36 108.6 72.29C108.59 72.22 108.61 72.15 108.66 72.09C108.7 72.04 108.77 72 108.84 71.99C108.91 71.99 108.98 72.01 109.03 72.05L182.3 131.02C182.35 131.07 182.39 131.13 182.39 131.2C182.41 131.27 182.38 131.34 182.34 131.4C182.29 131.45 182.23 131.49 182.16 131.5C182.09 131.5 182.01 131.48 181.96 131.44L181.96 131.44Z" />
	<path id="Layer" class="shp2" d="M177.91 136.46L104.65 77.49C104.59 77.45 104.56 77.38 104.55 77.31C104.55 77.24 104.57 77.17 104.61 77.12C104.65 77.06 104.72 77.02 104.79 77.02C104.86 77.01 104.93 77.03 104.99 77.07L178.25 136.04C178.31 136.08 178.34 136.15 178.35 136.22C178.35 136.29 178.33 136.36 178.29 136.41C178.25 136.47 178.18 136.51 178.11 136.51C178.04 136.52 177.97 136.5 177.91 136.46Z" />
	<path id="Layer" class="shp2" d="M199.73 144.81L0.27 144.81C0.2 144.81 0.13 144.78 0.08 144.73C0.03 144.68 0 144.61 0 144.54C0 144.47 0.03 144.4 0.08 144.35C0.13 144.3 0.2 144.27 0.27 144.27L199.73 144.27C199.8 144.27 199.87 144.3 199.92 144.35C199.97 144.4 200 144.47 200 144.54C200 144.61 199.97 144.68 199.92 144.73C199.87 144.78 199.8 144.81 199.73 144.81Z" />
	<path id="Layer" class="shp3" d="M90.88 104.89L87.81 104.89L86.35 93.05L90.88 93.05L90.88 104.89L90.88 104.89Z" />
	<path id="Layer" class="shp4" d="M85.61 104.01L91.54 104.01L91.54 107.74L81.88 107.74L81.88 107.74C81.88 107.25 81.98 106.77 82.17 106.32C82.35 105.86 82.63 105.45 82.97 105.11C83.32 104.76 83.73 104.48 84.19 104.29C84.64 104.11 85.13 104.01 85.61 104.01L85.61 104.01Z" />
	<path id="Layer" class="shp3" d="M59.49 104.89L56.41 104.89L54.95 93.05L59.49 93.05L59.49 104.89L59.49 104.89Z" />
	<path id="Layer" class="shp4" d="M54.22 104.01L60.15 104.01L60.15 107.74L50.49 107.74L50.49 107.74C50.49 107.25 50.58 106.77 50.77 106.32C50.96 105.86 51.23 105.45 51.58 105.11C51.93 104.76 52.33 104.48 52.79 104.29C53.24 104.11 53.73 104.01 54.22 104.01L54.22 104.01Z" />
	<path id="Layer" class="shp4" d="M69.75 17.06L69.75 15.72C69.75 14.58 69.97 13.46 70.41 12.4C70.85 11.35 71.49 10.4 72.29 9.59C73.09 8.79 74.05 8.15 75.1 7.72C76.15 7.28 77.28 7.06 78.42 7.06L78.42 7.06C79.56 7.06 80.69 7.28 81.74 7.72C82.79 8.15 83.75 8.79 84.55 9.59C85.35 10.4 85.99 11.35 86.43 12.4C86.87 13.46 87.09 14.58 87.09 15.72L87.09 17.06C87.09 17.88 86.93 18.69 86.61 19.45C86.3 20.21 85.84 20.89 85.26 21.48C84.68 22.06 83.99 22.51 83.23 22.83C82.47 23.14 81.66 23.3 80.84 23.3L76 23.3C75.18 23.3 74.37 23.14 73.61 22.83C72.85 22.51 72.16 22.06 71.58 21.48C71 20.89 70.54 20.21 70.23 19.45C69.91 18.69 69.75 17.88 69.75 17.06L69.75 17.06Z" />
	<path id="Layer" class="shp3" d="M78.42 23.77C74.77 23.77 71.82 20.82 71.82 17.17C71.82 13.52 74.77 10.58 78.42 10.58C82.07 10.58 85.02 13.52 85.02 17.17C85.02 20.82 82.07 23.77 78.42 23.77Z" />
	<path id="Layer" class="shp3" d="" />
	<path id="Layer" class="shp3" d="M42.51 39.84C42.77 39.58 43.09 39.39 43.45 39.28C43.79 39.16 44.17 39.12 44.53 39.16C44.9 39.21 45.25 39.33 45.56 39.52C45.87 39.72 46.15 39.98 46.35 40.29L52.01 39.22L53.49 42.5L45.48 43.89C44.94 44.2 44.31 44.29 43.7 44.17C43.09 44.03 42.55 43.69 42.19 43.18C41.83 42.68 41.65 42.07 41.71 41.45C41.77 40.83 42.05 40.26 42.51 39.84L42.51 39.84Z" />
	<path id="Layer" class="shp2" d="M73.27 27.92L73.35 28.03L64.07 34.13L48.41 39.13C48.3 39.16 48.21 39.22 48.12 39.28C48.03 39.35 47.96 39.43 47.9 39.52C47.84 39.61 47.8 39.71 47.77 39.82C47.75 39.92 47.75 40.03 47.75 40.13L48.1 43.07C48.11 43.21 48.15 43.33 48.22 43.45C48.29 43.56 48.38 43.65 48.49 43.73C48.59 43.81 48.71 43.86 48.84 43.89C48.97 43.91 49.1 43.91 49.23 43.89L63.97 40.73C64.15 40.69 64.32 40.65 64.49 40.59C64.67 40.53 64.84 40.47 65.01 40.39C65.17 40.32 65.33 40.24 65.49 40.15C65.65 40.06 65.8 39.96 65.95 39.86L76.38 32.45C76.57 32.31 76.73 32.16 76.88 31.98C77.03 31.8 77.15 31.61 77.25 31.39C77.35 31.19 77.42 30.96 77.46 30.74C77.5 30.51 77.51 30.28 77.49 30.04C77.45 29.59 77.3 29.14 77.03 28.75C76.77 28.37 76.41 28.06 75.99 27.86C75.58 27.66 75.11 27.56 74.65 27.6C74.19 27.62 73.73 27.78 73.35 28.03L73.27 27.92Z" />
	<path id="Layer" class="shp4" d="M87.87 101.53C87.75 101.53 87.63 101.51 87.52 101.48C87.41 101.45 87.3 101.39 87.2 101.33C87.1 101.27 87.01 101.19 86.94 101.1C86.86 101.01 86.8 100.91 86.75 100.8L72.66 66.03C72.63 65.96 72.57 65.89 72.51 65.85C72.43 65.8 72.35 65.78 72.27 65.79C72.19 65.8 72.11 65.82 72.05 65.88C71.98 65.92 71.93 65.99 71.91 66.07L60.41 99.92C60.37 100.08 60.29 100.23 60.18 100.36C60.07 100.48 59.94 100.58 59.79 100.66C59.64 100.73 59.48 100.77 59.31 100.77C59.15 100.79 58.99 100.76 58.83 100.7L54.98 99.26C54.87 99.22 54.77 99.17 54.69 99.1C54.59 99.04 54.51 98.96 54.45 98.87C54.38 98.79 54.33 98.69 54.28 98.59C54.24 98.48 54.21 98.37 54.2 98.26C52.47 83.18 67.59 45.09 67.74 44.7L67.78 44.6L81.57 47.64L81.59 47.68C87.09 53.67 91.61 91.47 92.47 98.99C92.48 99.12 92.47 99.26 92.45 99.38C92.41 99.52 92.36 99.64 92.29 99.76C92.22 99.88 92.13 99.98 92.02 100.06C91.91 100.15 91.79 100.22 91.67 100.26L88.27 101.46C88.23 101.47 88.2 101.48 88.17 101.49C88.13 101.5 88.1 101.51 88.07 101.51C88.03 101.52 88 101.52 87.97 101.53C87.93 101.53 87.9 101.53 87.87 101.53Z" />
	<path id="Layer" class="shp2" d="M75.99 48.87C72.65 48.87 68.93 48.21 67.78 45.46L67.75 45.4L67.79 45.34C68.69 43.86 69.89 41.33 69.25 40.85C67.98 39.92 67.37 38.38 67.42 36.28C67.54 31.73 70.65 27.68 75.15 26.22L75.15 26.22C75.47 26.11 75.78 26.02 76.1 25.93C76.42 25.84 76.73 25.75 77.05 25.67C77.37 25.59 77.69 25.51 78.02 25.43C78.34 25.36 78.66 25.3 78.99 25.23C79.46 25.14 79.94 25.1 80.42 25.1C80.9 25.12 81.37 25.18 81.84 25.3C82.31 25.41 82.76 25.57 83.19 25.79C83.62 26 84.03 26.27 84.4 26.57C84.77 26.87 85.12 27.22 85.42 27.6C85.72 27.98 85.98 28.39 86.19 28.83C86.4 29.26 86.56 29.72 86.67 30.19C86.78 30.66 86.84 31.15 86.85 31.63C86.89 36.5 86.14 43.28 82.3 47.94C82.25 47.99 82.21 48.04 82.15 48.08C82.1 48.13 82.04 48.17 81.98 48.2C81.92 48.24 81.85 48.27 81.79 48.3C81.73 48.32 81.66 48.34 81.59 48.35C81.13 48.44 80.67 48.51 80.2 48.57C79.73 48.63 79.27 48.69 78.8 48.73C78.33 48.77 77.87 48.81 77.39 48.83C76.93 48.85 76.46 48.87 75.99 48.87L75.99 48.87Z" />
	<path id="Layer" class="shp3" d="M74.75 48.69C74.83 48.37 74.99 48.06 75.19 47.8C75.4 47.54 75.65 47.32 75.95 47.15C76.24 46.99 76.56 46.88 76.89 46.83C77.22 46.79 77.56 46.81 77.89 46.9C77.92 46.91 77.95 46.92 77.99 46.93C78.02 46.94 78.05 46.95 78.08 46.97C78.11 46.98 78.15 46.99 78.18 47.01C78.21 47.02 78.24 47.03 78.27 47.05L82.57 43.14L85.56 45.15L79.41 50.58C79.27 50.83 79.1 51.06 78.89 51.24C78.67 51.44 78.43 51.59 78.17 51.69C77.91 51.81 77.63 51.87 77.35 51.89C77.07 51.91 76.78 51.89 76.51 51.81C76.19 51.73 75.89 51.57 75.62 51.37C75.36 51.16 75.14 50.91 74.97 50.62C74.81 50.33 74.71 50.01 74.67 49.68C74.63 49.35 74.65 49.01 74.75 48.69L74.75 48.69Z" />
	<path id="Layer" class="shp2" d="M81.89 48.74C81.82 48.74 81.75 48.73 81.69 48.72C81.61 48.71 81.55 48.69 81.49 48.67C81.42 48.65 81.35 48.61 81.29 48.58C81.23 48.55 81.18 48.51 81.13 48.47L79.43 47.09C79.29 46.97 79.17 46.82 79.1 46.66C79.02 46.49 78.99 46.31 78.99 46.13C78.99 45.95 79.03 45.77 79.11 45.6C79.2 45.44 79.31 45.3 79.46 45.19L86.57 39.74C86.61 39.71 86.65 39.67 86.67 39.63C86.7 39.58 86.71 39.53 86.72 39.48C86.73 39.42 86.73 39.37 86.71 39.32C86.7 39.27 86.67 39.22 86.65 39.18L82.26 33.39C82.01 33.06 81.81 32.68 81.69 32.28C81.57 31.88 81.51 31.46 81.53 31.05C81.56 30.63 81.65 30.22 81.81 29.83C81.98 29.45 82.21 29.1 82.49 28.79L82.49 28.79C82.79 28.47 83.15 28.2 83.55 28.01C83.95 27.82 84.38 27.7 84.83 27.66C85.27 27.63 85.71 27.68 86.13 27.8C86.56 27.93 86.95 28.14 87.31 28.41L87.33 28.43L91.91 34.99C92.41 35.38 92.81 35.88 93.08 36.44C93.35 37.01 93.49 37.63 93.47 38.26C93.47 38.89 93.31 39.51 93.03 40.07C92.73 40.63 92.32 41.11 91.81 41.48L82.61 48.5C82.56 48.54 82.51 48.58 82.45 48.6C82.39 48.63 82.33 48.66 82.27 48.68C82.21 48.7 82.15 48.71 82.08 48.72C82.02 48.73 81.95 48.74 81.89 48.74Z" />
	<path id="Layer" class="shp4" d="M72.57 15.31L72.57 12.04L78.42 9.49L83.99 12.04L83.99 15.31C83.99 15.38 83.98 15.46 83.95 15.52C83.93 15.58 83.89 15.64 83.84 15.7C83.79 15.74 83.73 15.78 83.67 15.81C83.6 15.84 83.53 15.85 83.46 15.85L73.11 15.85C73.04 15.85 72.97 15.84 72.9 15.81C72.84 15.78 72.78 15.74 72.73 15.7C72.68 15.64 72.64 15.58 72.61 15.52C72.59 15.46 72.57 15.38 72.57 15.31Z" />
	<path id="Layer" class="shp4" d="M78.15 7.49C77.29 4.74 79.1 1.59 81.77 0.51C84.44 -0.59 87.63 0.17 89.89 1.98C92.13 3.77 93.53 6.47 94.27 9.25C95.01 12.03 95.15 14.93 95.29 17.81C98.57 18.41 100.81 22.3 99.67 25.43C98.53 28.56 94.33 30.12 91.42 28.48C88.51 26.84 87.67 22.45 89.77 19.85C90.76 18.63 91.32 17.11 91.35 15.53C91.37 13.95 90.87 12.41 89.93 11.15C88.98 9.89 87.64 8.99 86.12 8.57C84.59 8.15 82.98 8.26 81.52 8.87C79.91 9.54 77.88 7.79 78.15 7.49Z" />
	<path id="Layer" class="shp1" d="M41.29 27.14C40.31 27.14 39.34 27.08 38.37 26.97C37.39 26.86 36.43 26.71 35.47 26.49C34.51 26.29 33.57 26.03 32.64 25.72C31.71 25.41 30.8 25.06 29.91 24.65C29.81 24.6 29.71 24.54 29.62 24.47C29.53 24.39 29.45 24.3 29.39 24.2C29.33 24.11 29.28 24 29.25 23.89C29.21 23.78 29.2 23.67 29.2 23.55L29.2 13.77C29.2 13.62 29.23 13.46 29.29 13.31C29.35 13.16 29.44 13.03 29.55 12.92C29.67 12.8 29.8 12.72 29.95 12.66C30.09 12.6 30.25 12.56 30.41 12.56L52.18 12.56C52.34 12.56 52.5 12.6 52.65 12.66C52.79 12.72 52.93 12.8 53.03 12.92C53.15 13.03 53.24 13.16 53.3 13.31C53.36 13.46 53.39 13.62 53.39 13.77L53.39 23.55C53.39 23.67 53.37 23.78 53.34 23.89C53.31 24 53.26 24.11 53.2 24.2C53.13 24.3 53.06 24.39 52.97 24.47C52.88 24.54 52.79 24.6 52.68 24.65L52.68 24.65C51.79 25.06 50.87 25.41 49.95 25.72C49.02 26.03 48.07 26.29 47.12 26.49C46.16 26.71 45.19 26.86 44.22 26.97C43.25 27.08 42.27 27.14 41.29 27.14Z" />
	<path id="Layer" class="shp1" d="M41.29 19.22C41.25 19.22 41.21 19.22 41.17 19.22C41.13 19.21 41.09 19.2 41.05 19.2C41.01 19.19 40.97 19.18 40.93 19.17C40.89 19.16 40.86 19.14 40.82 19.13L23.55 11.85C23.33 11.75 23.14 11.6 23.01 11.39C22.88 11.19 22.81 10.95 22.81 10.72C22.82 10.48 22.89 10.24 23.03 10.04C23.17 9.84 23.37 9.69 23.59 9.6L40.86 3.07C40.93 3.04 41 3.02 41.07 3.01C41.15 2.99 41.22 2.99 41.29 2.99C41.37 2.99 41.44 2.99 41.51 3.01C41.59 3.02 41.66 3.04 41.73 3.07L58.76 9.61C58.99 9.7 59.18 9.84 59.32 10.04C59.45 10.24 59.53 10.48 59.53 10.72C59.54 10.95 59.47 11.19 59.34 11.39C59.21 11.59 59.03 11.75 58.8 11.85L41.77 19.12C41.73 19.14 41.69 19.16 41.65 19.16C41.61 19.18 41.57 19.19 41.53 19.2C41.49 19.2 41.45 19.21 41.41 19.22C41.37 19.22 41.33 19.22 41.29 19.22L41.29 19.22Z" />
	<path id="Layer" class="shp5" d="M31.21 25.32C30.32 25.32 29.6 24.6 29.6 23.71C29.6 22.81 30.32 22.1 31.21 22.1C32.11 22.1 32.83 22.81 32.83 23.71C32.83 24.6 32.11 25.32 31.21 25.32Z" />
	<path id="Layer" class="shp6" d="M58.86 10.82L41.83 18.09C41.76 18.12 41.69 18.14 41.62 18.16C41.55 18.17 41.48 18.18 41.41 18.18C41.33 18.18 41.26 18.17 41.19 18.16C41.12 18.14 41.05 18.12 40.99 18.09L23.72 10.82C23.67 10.8 23.61 10.77 23.57 10.74C23.51 10.71 23.47 10.67 23.43 10.64C23.38 10.6 23.34 10.56 23.3 10.51C23.27 10.46 23.23 10.42 23.21 10.36C23.13 10.5 23.08 10.64 23.07 10.8C23.05 10.95 23.07 11.1 23.12 11.24C23.17 11.39 23.25 11.52 23.35 11.63C23.45 11.75 23.58 11.83 23.72 11.89L40.99 19.17C41.05 19.2 41.12 19.22 41.19 19.23C41.26 19.24 41.33 19.25 41.41 19.25C41.48 19.25 41.55 19.24 41.62 19.23C41.69 19.22 41.76 19.2 41.83 19.16L58.86 11.89C59 11.83 59.13 11.74 59.23 11.63C59.33 11.52 59.41 11.39 59.46 11.24C59.51 11.09 59.53 10.94 59.51 10.8C59.49 10.64 59.45 10.5 59.37 10.36C59.34 10.42 59.31 10.46 59.27 10.51C59.23 10.55 59.19 10.6 59.15 10.63C59.11 10.67 59.07 10.7 59.01 10.74C58.97 10.77 58.91 10.8 58.86 10.82Z" />
	<path id="Layer" class="shp5" d="M31.35 23.7C31.39 23.7 31.42 23.69 31.45 23.68C31.49 23.67 31.51 23.65 31.54 23.62C31.57 23.6 31.59 23.57 31.6 23.53C31.61 23.5 31.62 23.47 31.62 23.43L31.62 14.45L40.49 11.22C40.55 11.22 40.63 11.19 40.67 11.15C40.73 11.09 40.75 11.03 40.75 10.95C40.76 10.88 40.73 10.82 40.68 10.76C40.63 10.72 40.56 10.68 40.49 10.68L31.63 13.91C31.59 13.91 31.55 13.91 31.52 13.91C31.49 13.92 31.45 13.93 31.42 13.95C31.39 13.96 31.35 13.97 31.32 13.99C31.29 14.01 31.27 14.04 31.24 14.06C31.21 14.09 31.19 14.11 31.17 14.15C31.15 14.17 31.13 14.21 31.12 14.24C31.11 14.27 31.1 14.31 31.09 14.34C31.09 14.37 31.08 14.41 31.08 14.45L31.08 23.43C31.08 23.47 31.09 23.5 31.1 23.53C31.11 23.57 31.13 23.6 31.16 23.62C31.19 23.65 31.21 23.67 31.25 23.68C31.28 23.69 31.31 23.7 31.35 23.7L31.35 23.7Z" />
</svg>