<svg version="1.2" baseProfile="tiny-ps" xmlns="http://www.w3.org/2000/svg" viewBox="0 0 300 218" width="300" height="218">
	<title>undraw_education_f8ru-svg</title>
	<style>
		tspan { white-space:pre }
		.shp0 { fill: #f2f2f2 } 
		.shp1 { fill: #eba5ce } 
		.shp2 { fill: #cccccc } 
		.shp3 { fill: #ffb8b8 } 
		.shp4 { fill: #2f2e41 } 
		.shp5 { fill: #3f3d56 } 
		.shp6 { opacity: 0.2;fill: #000000 } 
	</style>
	<path id="Layer" class="shp0" d="M191.18 163.21L191.18 215.69L59.84 215.69C44.88 215.69 32.71 203.92 32.71 189.45C32.71 174.98 44.88 163.21 59.84 163.21L191.18 163.21Z" />
	<path id="Layer" class="shp1" d="M194.4 215.29C194.4 215.55 194.35 215.82 194.25 216.06C194.15 216.31 194 216.53 193.81 216.72C193.62 216.9 193.4 217.05 193.16 217.15C192.91 217.26 192.65 217.31 192.38 217.31L57.51 217.31C50.18 217.31 43.15 214.39 37.97 209.21C32.79 204.02 29.88 196.99 29.88 189.65C29.88 182.32 32.79 175.29 37.97 170.1C43.15 164.91 50.18 162 57.51 162L192.38 162C192.92 162 193.43 162.21 193.81 162.59C194.19 162.97 194.4 163.48 194.4 164.02C194.4 164.55 194.19 165.07 193.81 165.45C193.43 165.83 192.92 166.04 192.38 166.04L57.51 166.04C51.25 166.04 45.25 168.53 40.83 172.95C36.4 177.38 33.92 183.39 33.92 189.65C33.92 195.92 36.4 201.92 40.83 206.35C45.25 210.78 51.25 213.27 57.51 213.27L192.38 213.27C192.65 213.27 192.91 213.32 193.16 213.42C193.4 213.53 193.62 213.68 193.81 213.86C194 214.05 194.15 214.27 194.25 214.52C194.35 214.76 194.4 215.02 194.4 215.29Z" />
	<path id="Layer" class="shp2" d="M191.18 175.32L50.05 175.32C49.94 175.32 49.84 175.28 49.76 175.2C49.69 175.13 49.64 175.03 49.64 174.92C49.64 174.81 49.69 174.71 49.76 174.63C49.84 174.56 49.94 174.52 50.05 174.52L191.18 174.52C191.28 174.52 191.38 174.56 191.46 174.63C191.54 174.71 191.58 174.81 191.58 174.92C191.58 175.03 191.54 175.13 191.46 175.2C191.38 175.28 191.28 175.32 191.18 175.32Z" />
	<path id="Layer" class="shp2" d="M191.18 185.01L50.05 185.01C49.94 185.01 49.84 184.97 49.76 184.89C49.69 184.82 49.64 184.72 49.64 184.61C49.64 184.5 49.69 184.4 49.76 184.32C49.84 184.25 49.94 184.2 50.05 184.2L191.18 184.2C191.28 184.2 191.38 184.25 191.46 184.32C191.54 184.4 191.58 184.5 191.58 184.61C191.58 184.72 191.54 184.82 191.46 184.89C191.38 184.97 191.28 185.01 191.18 185.01Z" />
	<path id="Layer" class="shp2" d="M191.18 194.7L50.05 194.7C49.94 194.7 49.84 194.66 49.76 194.58C49.69 194.51 49.64 194.4 49.64 194.3C49.64 194.19 49.69 194.09 49.76 194.01C49.84 193.94 49.94 193.89 50.05 193.89L191.18 193.89C191.28 193.89 191.38 193.94 191.46 194.01C191.54 194.09 191.58 194.19 191.58 194.3C191.58 194.4 191.54 194.51 191.46 194.58C191.38 194.66 191.28 194.7 191.18 194.7Z" />
	<path id="Layer" class="shp2" d="M191.18 204.39L50.05 204.39C49.94 204.39 49.84 204.35 49.76 204.27C49.69 204.2 49.64 204.09 49.64 203.99C49.64 203.88 49.69 203.78 49.76 203.7C49.84 203.62 49.94 203.58 50.05 203.58L191.18 203.58C191.28 203.58 191.38 203.62 191.46 203.7C191.54 203.78 191.58 203.88 191.58 203.99C191.58 204.09 191.54 204.2 191.46 204.27C191.38 204.35 191.28 204.39 191.18 204.39Z" />
	<path id="Layer" class="shp0" d="M292.67 173.09L259.79 213.96L157.52 131.46C145.87 122.06 143.77 105.25 152.83 93.98C161.9 82.71 178.76 81.19 190.41 90.59L292.67 173.09Z" />
	<path id="Layer" class="shp2" d="M262.55 215.67C262.38 215.88 262.18 216.05 261.95 216.17C261.71 216.3 261.46 216.38 261.2 216.41C260.93 216.44 260.67 216.41 260.41 216.34C260.16 216.26 259.92 216.14 259.72 215.97L154.69 131.25C148.98 126.65 145.34 119.96 144.55 112.67C143.77 105.38 145.91 98.08 150.51 92.36C155.11 86.65 161.78 83 169.06 82.22C176.35 81.44 183.64 83.58 189.35 88.18L294.37 172.91C294.79 173.24 295.06 173.73 295.12 174.26C295.17 174.8 295.02 175.33 294.68 175.75C294.35 176.16 293.86 176.43 293.33 176.49C292.79 176.54 292.26 176.39 291.85 176.05L186.82 91.32C181.95 87.39 175.71 85.56 169.49 86.23C163.27 86.9 157.57 90.01 153.64 94.89C149.72 99.77 147.89 106.01 148.56 112.24C149.23 118.47 152.34 124.18 157.22 128.1L262.24 212.83C262.45 213 262.62 213.2 262.75 213.44C262.88 213.67 262.96 213.92 262.98 214.19C263.01 214.45 262.99 214.72 262.91 214.97C262.84 215.23 262.72 215.46 262.55 215.67Z" />
	<path id="Layer" class="shp2" d="M285.08 182.52L175.19 93.87C175.11 93.8 175.05 93.7 175.04 93.6C175.03 93.49 175.06 93.38 175.13 93.3C175.2 93.22 175.29 93.16 175.4 93.15C175.51 93.14 175.61 93.17 175.7 93.24L285.59 181.89C285.67 181.96 285.73 182.06 285.74 182.16C285.75 182.27 285.72 182.38 285.65 182.46C285.58 182.54 285.49 182.6 285.38 182.61C285.27 182.62 285.17 182.59 285.08 182.52L285.08 182.52Z" />
	<path id="Layer" class="shp2" d="M279.01 190.07L169.12 101.41C169.03 101.35 168.98 101.25 168.97 101.14C168.96 101.04 168.99 100.93 169.06 100.85C169.12 100.76 169.22 100.71 169.33 100.7C169.43 100.69 169.54 100.72 169.62 100.78L279.52 189.44C279.6 189.5 279.66 189.6 279.67 189.71C279.68 189.82 279.65 189.92 279.58 190.01C279.51 190.09 279.42 190.14 279.31 190.15C279.2 190.16 279.1 190.13 279.01 190.07Z" />
	<path id="Layer" class="shp2" d="M272.94 197.61L163.05 108.96C162.96 108.89 162.91 108.79 162.9 108.69C162.89 108.58 162.92 108.47 162.99 108.39C163.05 108.31 163.15 108.25 163.26 108.24C163.36 108.23 163.47 108.26 163.55 108.33L273.45 196.98C273.53 197.05 273.58 197.15 273.59 197.25C273.61 197.36 273.57 197.47 273.51 197.55C273.44 197.63 273.34 197.69 273.24 197.7C273.13 197.71 273.02 197.68 272.94 197.61L272.94 197.61Z" />
	<path id="Layer" class="shp2" d="M266.87 205.16L156.97 116.5C156.89 116.44 156.84 116.34 156.83 116.23C156.82 116.13 156.85 116.02 156.91 115.94C156.98 115.85 157.08 115.8 157.18 115.79C157.29 115.78 157.4 115.81 157.48 115.87L267.37 204.53C267.46 204.59 267.51 204.69 267.52 204.8C267.53 204.9 267.5 205.01 267.44 205.09C267.37 205.18 267.27 205.23 267.17 205.24C267.06 205.25 266.95 205.22 266.87 205.16Z" />
	<path id="Layer" class="shp2" d="M299.6 217.71L0.4 217.71C0.3 217.71 0.19 217.67 0.12 217.59C0.04 217.52 0 217.42 0 217.31C0 217.2 0.04 217.1 0.12 217.02C0.19 216.95 0.3 216.9 0.4 216.9L299.6 216.9C299.7 216.9 299.81 216.95 299.88 217.02C299.96 217.1 300 217.2 300 217.31C300 217.42 299.96 217.52 299.88 217.59C299.81 217.67 299.7 217.71 299.6 217.71Z" />
	<path id="Layer" class="shp3" d="M136.32 157.7L131.71 157.7L129.52 139.89L136.32 139.89L136.32 157.7L136.32 157.7Z" />
	<path id="Layer" class="shp4" d="M128.42 156.38L137.31 156.38L137.31 161.98L122.82 161.98L122.82 161.98C122.82 161.24 122.97 160.52 123.25 159.84C123.53 159.16 123.94 158.54 124.46 158.02C124.98 157.5 125.6 157.08 126.28 156.8C126.96 156.52 127.69 156.38 128.42 156.38L128.42 156.38Z" />
	<path id="Layer" class="shp3" d="M89.23 157.7L84.62 157.7L82.43 139.89L89.23 139.89L89.23 157.7L89.23 157.7Z" />
	<path id="Layer" class="shp4" d="M81.33 156.38L90.22 156.38L90.22 161.98L75.73 161.98L75.73 161.98C75.73 161.24 75.87 160.52 76.15 159.84C76.44 159.16 76.85 158.54 77.37 158.02C77.89 157.5 78.5 157.08 79.18 156.8C79.86 156.52 80.59 156.38 81.33 156.38L81.33 156.38Z" />
	<path id="Layer" class="shp4" d="M104.63 25.65L104.63 23.63C104.63 21.92 104.96 20.23 105.62 18.65C106.27 17.07 107.23 15.63 108.43 14.42C109.64 13.21 111.08 12.26 112.65 11.6C114.23 10.95 115.92 10.61 117.63 10.61L117.63 10.61C119.34 10.61 121.03 10.95 122.61 11.6C124.18 12.26 125.62 13.21 126.82 14.42C128.03 15.63 128.99 17.07 129.64 18.65C130.3 20.23 130.63 21.92 130.63 23.63L130.63 25.65C130.63 26.88 130.39 28.1 129.92 29.24C129.45 30.38 128.76 31.41 127.89 32.29C127.02 33.16 125.98 33.85 124.85 34.32C123.71 34.79 122.49 35.03 121.26 35.03L114 35.03C112.77 35.03 111.55 34.79 110.41 34.32C109.28 33.85 108.24 33.16 107.37 32.29C106.5 31.41 105.81 30.38 105.34 29.24C104.87 28.1 104.63 26.88 104.63 25.65L104.63 25.65Z" />
	<path id="Layer" class="shp3" d="M117.63 35.73C112.15 35.73 107.73 31.3 107.73 25.81C107.73 20.33 112.15 15.9 117.63 15.9C123.11 15.9 127.53 20.33 127.53 25.81C127.53 31.3 123.11 35.73 117.63 35.73Z" />
	<path id="Layer" class="shp3" d="" />
	<path id="Layer" class="shp3" d="M63.76 59.89C64.16 59.51 64.64 59.22 65.17 59.05C65.69 58.88 66.25 58.82 66.8 58.88C67.35 58.95 67.87 59.13 68.34 59.42C68.81 59.72 69.22 60.11 69.52 60.57L78.01 58.96L80.24 63.89L68.22 65.99C67.41 66.45 66.46 66.59 65.55 66.4C64.64 66.2 63.83 65.68 63.28 64.92C62.74 64.17 62.48 63.25 62.57 62.32C62.65 61.39 63.08 60.53 63.76 59.89L63.76 59.89Z" />
	<path id="Layer" class="shp2" d="M109.91 41.97L110.02 42.14L96.1 51.32L72.61 58.83C72.45 58.88 72.31 58.96 72.18 59.06C72.05 59.16 71.94 59.28 71.85 59.41C71.76 59.55 71.7 59.7 71.66 59.86C71.62 60.02 71.62 60.18 71.63 60.34L72.15 64.76C72.17 64.96 72.23 65.15 72.33 65.32C72.43 65.49 72.57 65.63 72.73 65.75C72.89 65.86 73.07 65.94 73.26 65.98C73.45 66.02 73.65 66.02 73.84 65.98L95.95 61.24C96.22 61.18 96.48 61.11 96.74 61.03C97 60.94 97.26 60.84 97.51 60.73C97.76 60.62 98 60.5 98.24 60.37C98.47 60.23 98.7 60.08 98.93 59.93L114.57 48.79C114.85 48.58 115.1 48.35 115.32 48.08C115.55 47.81 115.73 47.52 115.88 47.2C116.02 46.89 116.13 46.55 116.19 46.21C116.25 45.87 116.27 45.52 116.24 45.17C116.18 44.48 115.95 43.81 115.55 43.23C115.16 42.65 114.62 42.19 113.99 41.88C113.37 41.58 112.67 41.44 111.97 41.49C111.28 41.53 110.6 41.76 110.02 42.14L109.91 41.97Z" />
	<path id="Layer" class="shp4" d="M131.8 152.64C131.62 152.64 131.44 152.62 131.28 152.57C131.11 152.52 130.95 152.44 130.8 152.35C130.65 152.25 130.52 152.13 130.41 152C130.29 151.86 130.2 151.71 130.13 151.55L108.99 99.27C108.94 99.16 108.86 99.06 108.76 99C108.65 98.93 108.53 98.9 108.41 98.91C108.28 98.92 108.16 98.96 108.07 99.04C107.97 99.11 107.9 99.22 107.86 99.34L90.62 150.23C90.55 150.47 90.43 150.69 90.27 150.88C90.11 151.07 89.91 151.22 89.69 151.33C89.46 151.44 89.22 151.5 88.97 151.51C88.73 151.53 88.48 151.49 88.25 151.4L82.47 149.23C82.31 149.17 82.16 149.09 82.03 148.99C81.89 148.9 81.77 148.78 81.67 148.65C81.57 148.52 81.49 148.37 81.42 148.22C81.36 148.06 81.32 147.9 81.3 147.73C78.7 125.05 101.38 67.79 101.61 67.21L101.67 67.05L122.35 71.63L122.39 71.68C130.64 80.69 137.42 137.52 138.7 148.82C138.72 149.02 138.71 149.23 138.67 149.42C138.62 149.62 138.54 149.81 138.43 149.99C138.33 150.16 138.19 150.31 138.03 150.44C137.87 150.57 137.69 150.67 137.5 150.73L132.4 152.54C132.35 152.56 132.3 152.57 132.25 152.59C132.2 152.6 132.15 152.61 132.1 152.62C132.05 152.63 132 152.63 131.95 152.64C131.9 152.64 131.85 152.64 131.8 152.64Z" />
	<path id="Layer" class="shp2" d="M113.98 73.48C108.97 73.48 103.39 72.48 101.67 68.35L101.63 68.25L101.68 68.17C103.04 65.94 104.83 62.13 103.87 61.42C101.97 60.02 101.05 57.7 101.13 54.55C101.31 47.7 105.97 41.62 112.73 39.42L112.73 39.42C113.2 39.26 113.67 39.12 114.15 38.98C114.63 38.85 115.1 38.72 115.58 38.59C116.06 38.47 116.54 38.35 117.03 38.24C117.51 38.13 117.99 38.03 118.48 37.93C119.19 37.79 119.91 37.73 120.63 37.74C121.35 37.76 122.06 37.85 122.76 38.03C123.46 38.2 124.14 38.45 124.79 38.77C125.43 39.09 126.04 39.49 126.6 39.94C127.16 40.4 127.68 40.92 128.13 41.49C128.58 42.06 128.97 42.68 129.28 43.34C129.6 43.99 129.84 44.68 130.01 45.39C130.17 46.1 130.26 46.83 130.27 47.56C130.34 54.88 129.21 65.07 123.45 72.07C123.38 72.15 123.31 72.23 123.23 72.29C123.15 72.36 123.06 72.42 122.97 72.47C122.88 72.53 122.78 72.57 122.69 72.61C122.59 72.64 122.49 72.67 122.38 72.69C121.69 72.82 121 72.93 120.3 73.02C119.6 73.12 118.9 73.2 118.2 73.26C117.5 73.33 116.8 73.38 116.09 73.42C115.39 73.45 114.69 73.47 113.98 73.48L113.98 73.48Z" />
	<path id="Layer" class="shp3" d="M112.12 73.2C112.25 72.72 112.48 72.26 112.79 71.87C113.1 71.47 113.48 71.14 113.92 70.89C114.36 70.64 114.84 70.48 115.34 70.41C115.83 70.35 116.34 70.38 116.83 70.51C116.88 70.53 116.93 70.54 116.98 70.56C117.03 70.57 117.07 70.59 117.12 70.61C117.17 70.63 117.22 70.65 117.27 70.67C117.32 70.69 117.36 70.71 117.41 70.73L123.86 64.86L128.34 67.88L119.12 76.05C118.91 76.42 118.65 76.76 118.33 77.04C118.01 77.33 117.65 77.56 117.26 77.72C116.87 77.89 116.45 77.99 116.02 78.02C115.6 78.05 115.17 78.01 114.76 77.9C114.28 77.77 113.83 77.54 113.43 77.23C113.04 76.92 112.71 76.54 112.46 76.1C112.22 75.67 112.06 75.18 112 74.69C111.94 74.19 111.98 73.68 112.12 73.2L112.12 73.2Z" />
	<path id="Layer" class="shp2" d="M122.84 73.28C122.73 73.28 122.63 73.27 122.53 73.25C122.42 73.23 122.32 73.21 122.23 73.17C122.13 73.14 122.03 73.09 121.94 73.04C121.85 72.99 121.77 72.93 121.69 72.87L119.15 70.79C118.93 70.61 118.76 70.39 118.65 70.15C118.53 69.9 118.48 69.63 118.48 69.35C118.48 69.08 118.55 68.81 118.67 68.56C118.8 68.32 118.97 68.11 119.19 67.94L129.85 59.75C129.91 59.7 129.97 59.64 130.01 59.58C130.05 59.51 130.07 59.43 130.08 59.35C130.09 59.27 130.09 59.19 130.07 59.12C130.05 59.04 130.01 58.97 129.97 58.91L123.39 50.2C123.01 49.7 122.72 49.13 122.53 48.53C122.35 47.93 122.27 47.3 122.3 46.68C122.34 46.05 122.48 45.43 122.72 44.85C122.97 44.28 123.31 43.75 123.74 43.29L123.74 43.29C124.19 42.8 124.73 42.4 125.33 42.11C125.93 41.82 126.57 41.64 127.24 41.59C127.9 41.54 128.57 41.61 129.2 41.8C129.84 41.99 130.43 42.3 130.96 42.71L131 42.75L137.87 52.6C138.61 53.19 139.21 53.94 139.62 54.79C140.02 55.64 140.23 56.58 140.21 57.52C140.2 58.47 139.97 59.4 139.54 60.24C139.1 61.08 138.48 61.81 137.72 62.37L123.92 72.92C123.84 72.98 123.76 73.03 123.67 73.07C123.58 73.12 123.5 73.16 123.4 73.19C123.31 73.22 123.22 73.24 123.12 73.25C123.03 73.27 122.93 73.28 122.84 73.28Z" />
	<path id="Layer" class="shp4" d="M108.86 23.02L108.86 18.1L117.63 14.27L125.99 18.1L125.99 23.02C125.99 23.13 125.97 23.24 125.93 23.33C125.89 23.43 125.83 23.52 125.76 23.6C125.68 23.67 125.59 23.73 125.5 23.77C125.4 23.81 125.29 23.83 125.19 23.83L109.66 23.83C109.56 23.83 109.45 23.81 109.35 23.77C109.26 23.73 109.17 23.67 109.09 23.6C109.02 23.52 108.96 23.43 108.92 23.33C108.88 23.24 108.86 23.13 108.86 23.02Z" />
	<path id="Layer" class="shp4" d="M117.23 11.26C115.94 7.13 118.65 2.39 122.65 0.76C126.66 -0.88 131.45 0.26 134.83 2.97C138.2 5.67 140.3 9.72 141.41 13.9C142.52 18.09 142.73 22.45 142.94 26.78C147.86 27.68 151.21 33.53 149.5 38.24C147.8 42.94 141.49 45.28 137.13 42.82C132.77 40.36 131.51 33.75 134.66 29.85C136.14 28.01 136.98 25.72 137.02 23.35C137.06 20.98 136.31 18.66 134.89 16.77C133.47 14.87 131.46 13.51 129.18 12.88C126.89 12.26 124.47 12.42 122.28 13.33C119.86 14.35 116.82 11.71 117.23 11.26Z" />
	<path id="Layer" class="shp1" d="M61.94 40.81C60.47 40.8 59.01 40.71 57.55 40.55C56.09 40.39 54.64 40.15 53.21 39.83C51.77 39.52 50.36 39.13 48.96 38.67C47.57 38.2 46.2 37.67 44.87 37.06C44.71 36.99 44.56 36.9 44.43 36.79C44.29 36.67 44.18 36.54 44.08 36.39C43.99 36.25 43.92 36.09 43.87 35.92C43.82 35.75 43.8 35.58 43.8 35.41L43.8 20.7C43.8 20.47 43.84 20.23 43.93 20.01C44.03 19.79 44.16 19.59 44.33 19.42C44.5 19.25 44.7 19.12 44.92 19.03C45.14 18.94 45.37 18.89 45.61 18.89L78.27 18.89C78.51 18.89 78.75 18.94 78.97 19.03C79.19 19.12 79.39 19.25 79.55 19.42C79.72 19.59 79.86 19.79 79.95 20.01C80.04 20.23 80.09 20.47 80.09 20.7L80.09 35.41C80.09 35.58 80.06 35.75 80.01 35.92C79.96 36.09 79.89 36.25 79.8 36.39C79.7 36.54 79.59 36.67 79.46 36.79C79.32 36.9 79.18 36.99 79.02 37.06L79.02 37.06C77.68 37.67 76.31 38.2 74.92 38.67C73.53 39.13 72.11 39.52 70.68 39.83C69.24 40.15 67.79 40.39 66.33 40.55C64.88 40.71 63.41 40.8 61.94 40.81Z" />
	<path id="Layer" class="shp1" d="M61.94 28.9C61.88 28.9 61.82 28.89 61.76 28.89C61.7 28.88 61.64 28.87 61.58 28.86C61.52 28.85 61.46 28.83 61.4 28.82C61.34 28.8 61.29 28.78 61.23 28.76L35.33 17.81C35 17.67 34.71 17.44 34.52 17.13C34.32 16.83 34.22 16.47 34.22 16.11C34.23 15.75 34.34 15.39 34.55 15.1C34.76 14.8 35.05 14.57 35.39 14.44L61.29 4.61C61.4 4.57 61.5 4.54 61.61 4.52C61.72 4.5 61.83 4.49 61.94 4.49C62.05 4.49 62.16 4.5 62.27 4.52C62.38 4.54 62.49 4.57 62.59 4.61L88.14 14.45C88.48 14.58 88.77 14.8 88.98 15.1C89.18 15.39 89.3 15.75 89.3 16.11C89.31 16.47 89.21 16.82 89.01 17.13C88.82 17.43 88.54 17.67 88.2 17.81L62.65 28.75C62.59 28.78 62.54 28.8 62.48 28.81C62.42 28.83 62.36 28.85 62.3 28.86C62.24 28.87 62.18 28.88 62.12 28.89C62.06 28.89 62 28.9 61.94 28.9L61.94 28.9Z" />
	<path id="Layer" class="shp5" d="M46.82 38.06C45.48 38.06 44.4 36.98 44.4 35.64C44.4 34.3 45.48 33.22 46.82 33.22C48.16 33.22 49.24 34.3 49.24 35.64C49.24 36.98 48.16 38.06 46.82 38.06Z" />
	<path id="Layer" class="shp6" d="M88.29 16.26L62.74 27.2C62.64 27.24 62.54 27.27 62.43 27.3C62.32 27.32 62.22 27.33 62.11 27.33C62 27.33 61.89 27.32 61.79 27.3C61.68 27.28 61.58 27.24 61.48 27.2L35.58 16.26C35.5 16.23 35.42 16.19 35.35 16.14C35.27 16.1 35.2 16.04 35.14 15.99C35.07 15.93 35.01 15.87 34.95 15.8C34.9 15.73 34.85 15.66 34.81 15.58C34.69 15.78 34.62 16 34.6 16.23C34.58 16.46 34.6 16.69 34.68 16.9C34.75 17.12 34.87 17.32 35.02 17.49C35.18 17.66 35.37 17.79 35.58 17.88L61.48 28.82C61.58 28.86 61.68 28.89 61.79 28.91C61.89 28.93 62 28.94 62.11 28.94C62.22 28.94 62.32 28.93 62.43 28.91C62.54 28.89 62.64 28.86 62.74 28.81L88.29 17.87C88.5 17.78 88.69 17.65 88.84 17.48C89 17.32 89.12 17.12 89.19 16.9C89.26 16.68 89.29 16.45 89.26 16.23C89.24 16 89.17 15.78 89.06 15.58C89.01 15.66 88.96 15.73 88.91 15.8C88.85 15.86 88.79 15.93 88.73 15.98C88.67 16.04 88.6 16.09 88.52 16.14C88.45 16.19 88.37 16.23 88.29 16.26Z" />
	<path id="Layer" class="shp5" d="M47.02 35.63C47.08 35.63 47.13 35.62 47.18 35.6C47.23 35.58 47.27 35.55 47.31 35.51C47.35 35.48 47.38 35.43 47.4 35.38C47.42 35.33 47.43 35.28 47.43 35.23L47.43 21.72L60.73 16.87C60.83 16.87 60.94 16.83 61.01 16.76C61.09 16.68 61.13 16.58 61.13 16.47C61.14 16.36 61.1 16.26 61.02 16.18C60.95 16.11 60.84 16.06 60.74 16.06L47.44 20.91C47.39 20.91 47.33 20.92 47.28 20.92C47.23 20.93 47.18 20.95 47.13 20.97C47.08 20.99 47.03 21.01 46.98 21.04C46.94 21.07 46.9 21.11 46.86 21.14C46.82 21.18 46.79 21.22 46.76 21.27C46.73 21.31 46.7 21.36 46.68 21.41C46.66 21.46 46.65 21.51 46.64 21.56C46.63 21.61 46.62 21.67 46.62 21.72L46.62 35.23C46.62 35.28 46.63 35.33 46.65 35.38C46.67 35.43 46.7 35.48 46.74 35.51C46.78 35.55 46.82 35.58 46.87 35.6C46.92 35.62 46.97 35.63 47.02 35.63L47.02 35.63Z" />
</svg>