<svg version="1.2" baseProfile="tiny-ps" xmlns="http://www.w3.org/2000/svg" viewBox="0 0 300 193" width="300" height="193">
	<title>undraw_proud_coder_7ain-svg</title>
	<style>
		tspan { white-space:pre }
		.shp0 { fill: #e6e6e6 } 
		.shp1 { fill: #ffffff } 
		.shp2 { fill: #eba5ce } 
		.shp3 { fill: #cccccc } 
		.shp4 { fill: #ffb9b9 } 
		.shp5 { fill: #2f2e41 } 
		.shp6 { fill: #3f3d56 } 
	</style>
	<path id="Layer" class="shp0" d="M93.38 0.12L299.96 0.12L299.96 132.71L93.38 132.71L93.38 0.12Z" />
	<path id="Layer" class="shp1" d="M99.29 16.75L294.05 16.75L294.05 124.87L99.29 124.87L99.29 16.75Z" />
	<path id="Layer" class="shp2" d="M93.29 0L299.87 0L299.87 8.8L93.29 8.8L93.29 0Z" />
	<path id="Layer" class="shp1" d="M99.82 6.13C98.92 6.13 98.19 5.4 98.19 4.5C98.19 3.6 98.92 2.87 99.82 2.87C100.72 2.87 101.44 3.6 101.44 4.5C101.44 5.4 100.72 6.13 99.82 6.13Z" />
	<path id="Layer" class="shp1" d="M105.99 6.13C105.09 6.13 104.36 5.4 104.36 4.5C104.36 3.6 105.09 2.87 105.99 2.87C106.89 2.87 107.62 3.6 107.62 4.5C107.62 5.4 106.89 6.13 105.99 6.13Z" />
	<path id="Layer" class="shp1" d="M112.16 6.13C111.26 6.13 110.54 5.4 110.54 4.5C110.54 3.6 111.26 2.87 112.16 2.87C113.06 2.87 113.79 3.6 113.79 4.5C113.79 5.4 113.06 6.13 112.16 6.13Z" />
	<path id="Layer" class="shp3" d="M238.94 26.88L175.53 26.88C175.4 26.86 175.27 26.79 175.18 26.69C175.09 26.59 175.04 26.45 175.04 26.32C175.04 26.18 175.09 26.05 175.18 25.94C175.27 25.84 175.4 25.77 175.53 25.76L238.94 25.76C239.08 25.77 239.2 25.84 239.29 25.94C239.38 26.05 239.43 26.18 239.43 26.32C239.43 26.45 239.38 26.59 239.29 26.69C239.2 26.79 239.08 26.86 238.94 26.88Z" />
	<path id="Layer" class="shp3" d="M195.01 33.03L154.69 33.03C154.56 33.01 154.43 32.94 154.34 32.84C154.25 32.74 154.2 32.6 154.2 32.47C154.2 32.33 154.25 32.2 154.34 32.1C154.43 31.99 154.56 31.93 154.69 31.91L195.01 31.91C195.14 31.93 195.27 31.99 195.36 32.1C195.45 32.2 195.5 32.33 195.5 32.47C195.5 32.6 195.45 32.74 195.36 32.84C195.27 32.94 195.14 33.01 195.01 33.03Z" />
	<path id="Layer" class="shp3" d="M238.94 33.14L198.63 33.14C198.49 33.12 198.37 33.05 198.28 32.95C198.19 32.85 198.14 32.72 198.14 32.58C198.14 32.44 198.19 32.31 198.28 32.21C198.37 32.1 198.49 32.04 198.63 32.02L238.94 32.02C239.08 32.04 239.2 32.1 239.29 32.21C239.38 32.31 239.43 32.44 239.43 32.58C239.43 32.72 239.38 32.85 239.29 32.95C239.2 33.05 239.08 33.12 238.94 33.14L238.94 33.14Z" />
	<path id="Layer" class="shp3" d="M195.1 39.18L154.79 39.18C154.65 39.16 154.53 39.09 154.44 38.99C154.35 38.89 154.3 38.76 154.3 38.62C154.3 38.48 154.35 38.35 154.44 38.25C154.53 38.14 154.65 38.08 154.79 38.06L195.1 38.06C195.24 38.08 195.36 38.14 195.45 38.25C195.54 38.35 195.59 38.48 195.59 38.62C195.59 38.76 195.54 38.89 195.45 38.99C195.36 39.09 195.24 39.16 195.1 39.18Z" />
	<path id="Layer" class="shp3" d="M195.2 45.33L154.89 45.33C154.75 45.31 154.63 45.25 154.54 45.14C154.45 45.04 154.4 44.91 154.4 44.77C154.4 44.63 154.45 44.5 154.54 44.4C154.63 44.3 154.75 44.23 154.89 44.21L195.2 44.21C195.34 44.23 195.46 44.3 195.55 44.4C195.64 44.5 195.69 44.63 195.69 44.77C195.69 44.91 195.64 45.04 195.55 45.14C195.46 45.25 195.34 45.31 195.2 45.33Z" />
	<path id="Layer" class="shp3" d="M213.5 39.18L201.95 39.18C201.82 39.16 201.69 39.09 201.6 38.99C201.51 38.89 201.46 38.76 201.46 38.62C201.46 38.48 201.51 38.35 201.6 38.25C201.69 38.14 201.82 38.08 201.95 38.06L213.5 38.06C213.64 38.08 213.76 38.14 213.85 38.25C213.94 38.35 213.99 38.48 213.99 38.62C213.99 38.76 213.94 38.89 213.85 38.99C213.76 39.09 213.64 39.16 213.5 39.18Z" />
	<path id="Layer" class="shp3" d="M213.5 45.22L201.95 45.22C201.82 45.2 201.69 45.13 201.6 45.03C201.51 44.93 201.46 44.8 201.46 44.66C201.46 44.52 201.51 44.39 201.6 44.29C201.69 44.18 201.82 44.12 201.95 44.1L213.5 44.1C213.64 44.12 213.76 44.18 213.85 44.29C213.94 44.39 213.99 44.52 213.99 44.66C213.99 44.8 213.94 44.93 213.85 45.03C213.76 45.13 213.64 45.2 213.5 45.22Z" />
	<path id="Layer" class="shp3" d="M232.87 45.22L221.33 45.22C221.19 45.2 221.07 45.13 220.98 45.03C220.89 44.93 220.84 44.8 220.84 44.66C220.84 44.52 220.89 44.39 220.98 44.29C221.07 44.18 221.19 44.12 221.33 44.1L232.87 44.1C233.01 44.12 233.13 44.18 233.22 44.29C233.31 44.39 233.36 44.52 233.36 44.66C233.36 44.8 233.31 44.93 233.22 45.03C233.13 45.13 233.01 45.2 232.87 45.22Z" />
	<path id="Layer" class="shp3" d="M165.94 26.88L154.4 26.88C154.26 26.86 154.14 26.79 154.05 26.69C153.96 26.59 153.91 26.45 153.91 26.32C153.91 26.18 153.96 26.05 154.05 25.94C154.14 25.84 154.26 25.77 154.4 25.76L165.94 25.76C166.08 25.77 166.2 25.84 166.29 25.94C166.38 26.05 166.43 26.18 166.43 26.32C166.43 26.45 166.38 26.59 166.29 26.69C166.2 26.79 166.08 26.86 165.94 26.88Z" />
	<path id="Layer" class="shp3" d="M194.86 97.41L154.54 97.41C154.41 97.39 154.28 97.32 154.19 97.22C154.1 97.12 154.06 96.98 154.06 96.85C154.06 96.71 154.1 96.58 154.19 96.48C154.28 96.37 154.41 96.31 154.54 96.29L194.86 96.29C194.99 96.31 195.12 96.37 195.21 96.48C195.3 96.58 195.35 96.71 195.35 96.85C195.35 96.98 195.3 97.12 195.21 97.22C195.12 97.32 194.99 97.39 194.86 97.41L194.86 97.41Z" />
	<path id="Layer" class="shp3" d="M194.66 109.71L154.35 109.71C154.21 109.69 154.09 109.63 154 109.52C153.91 109.42 153.86 109.29 153.86 109.15C153.86 109.01 153.91 108.88 154 108.78C154.09 108.68 154.21 108.61 154.35 108.59L194.66 108.59C194.8 108.61 194.92 108.68 195.01 108.78C195.1 108.88 195.15 109.01 195.15 109.15C195.15 109.29 195.1 109.42 195.01 109.52C194.92 109.63 194.8 109.69 194.66 109.71L194.66 109.71Z" />
	<path id="Layer" class="shp3" d="M194.76 115.86L154.45 115.86C154.31 115.84 154.19 115.78 154.1 115.67C154.01 115.57 153.96 115.44 153.96 115.3C153.96 115.17 154.01 115.03 154.1 114.93C154.19 114.83 154.31 114.76 154.45 114.74L194.76 114.74C194.9 114.76 195.02 114.83 195.11 114.93C195.2 115.03 195.25 115.17 195.25 115.3C195.25 115.44 195.2 115.57 195.11 115.67C195.02 115.78 194.9 115.84 194.76 115.86L194.76 115.86Z" />
	<path id="Layer" class="shp3" d="M211.98 109.82L200.44 109.82C200.3 109.8 200.18 109.74 200.09 109.63C200 109.53 199.95 109.4 199.95 109.26C199.95 109.13 200 108.99 200.09 108.89C200.18 108.79 200.3 108.72 200.44 108.7L211.98 108.7C212.12 108.72 212.24 108.79 212.33 108.89C212.42 108.99 212.47 109.13 212.47 109.26C212.47 109.4 212.42 109.53 212.33 109.63C212.24 109.74 212.12 109.8 211.98 109.82Z" />
	<path id="Layer" class="shp3" d="M211.98 115.86L200.44 115.86C200.3 115.84 200.18 115.78 200.09 115.67C200 115.57 199.95 115.44 199.95 115.3C199.95 115.17 200 115.03 200.09 114.93C200.18 114.83 200.3 114.76 200.44 114.74L211.98 114.74C212.12 114.76 212.24 114.83 212.33 114.93C212.42 115.03 212.47 115.17 212.47 115.3C212.47 115.44 212.42 115.57 212.33 115.67C212.24 115.78 212.12 115.84 211.98 115.86Z" />
	<path id="Layer" class="shp3" d="M231.36 109.82L219.81 109.82C219.68 109.8 219.55 109.74 219.46 109.63C219.37 109.53 219.32 109.4 219.32 109.26C219.32 109.13 219.37 108.99 219.46 108.89C219.55 108.79 219.68 108.72 219.81 108.7L231.36 108.7C231.49 108.72 231.62 108.79 231.71 108.89C231.8 108.99 231.85 109.13 231.85 109.26C231.85 109.4 231.8 109.53 231.71 109.63C231.62 109.74 231.49 109.8 231.36 109.82Z" />
	<path id="Layer" class="shp3" d="M238.99 103.56L175.58 103.56C175.45 103.54 175.32 103.47 175.23 103.37C175.14 103.27 175.09 103.14 175.09 103C175.09 102.86 175.14 102.73 175.23 102.63C175.32 102.52 175.45 102.46 175.58 102.44L238.99 102.44C239.13 102.46 239.25 102.52 239.34 102.63C239.43 102.73 239.48 102.86 239.48 103C239.48 103.14 239.43 103.27 239.34 103.37C239.25 103.47 239.13 103.54 238.99 103.56Z" />
	<path id="Layer" class="shp3" d="M165.99 103.56L154.45 103.56C154.31 103.54 154.19 103.47 154.1 103.37C154.01 103.27 153.96 103.14 153.96 103C153.96 102.86 154.01 102.73 154.1 102.63C154.19 102.52 154.31 102.46 154.45 102.44L165.99 102.44C166.13 102.46 166.25 102.52 166.34 102.63C166.43 102.73 166.48 102.86 166.48 103C166.48 103.14 166.43 103.27 166.34 103.37C166.25 103.47 166.13 103.54 165.99 103.56Z" />
	<path id="Layer" class="shp0" d="M185.12 55.27L169.47 70.76L185.12 86.26L188.65 82.73L176.81 70.86L188.74 58.89L185.12 55.27L185.12 55.27Z" />
	<path id="Layer" class="shp0" d="M208.22 55.27L223.87 70.76L208.22 86.26L204.69 82.73L216.53 70.86L204.6 58.89L208.22 55.27L208.22 55.27Z" />
	<path id="Layer" class="shp2" d="M185.12 55.27L169.47 70.76L185.12 86.26L188.65 82.73L176.81 70.86L188.74 58.89L185.12 55.27L185.12 55.27Z" />
	<path id="Layer" class="shp2" d="M208.22 55.27L223.87 70.76L208.22 86.26L204.69 82.73L216.53 70.86L204.6 58.89L208.22 55.27L208.22 55.27Z" />
	<path id="Layer" class="shp0" d="M158.99 184.89C163.86 191.42 173.97 192.11 173.97 192.11C173.97 192.11 176.19 182.2 171.31 175.66C166.44 169.12 156.33 168.43 156.33 168.43C156.33 168.43 154.12 178.35 158.99 184.89Z" />
	<path id="Layer" class="shp0" d="M183.8 187.34C180.59 191.66 173.92 192.11 173.92 192.11C173.92 192.11 172.46 185.57 175.67 181.26C178.88 176.94 185.56 176.49 185.56 176.49C185.56 176.49 187.02 183.03 183.8 187.34Z" />
	<path id="Layer" class="shp4" d="M50.62 156.09L50.62 173.06L45.78 173.06L42.55 155.28L50.62 156.09L50.62 156.09Z" />
	<path id="Layer" class="shp4" d="M12.31 156.09L12.31 173.06L7.47 173.06L4.25 155.28L12.31 156.09L12.31 156.09Z" />
	<path id="Layer" class="shp4" d="M37.84 30.98C37.84 30.98 30.06 25.37 29.09 28.05C28.12 30.73 34.92 35.6 34.92 35.6L37.84 30.98Z" />
	<path id="Layer" class="shp5" d="M10.26 38.16C10.26 47.84 14.42 48.14 21.2 48.14C27.97 48.14 34.8 47.84 34.8 38.16C34.8 28.48 29.31 20.63 22.53 20.63C15.75 20.63 10.26 28.48 10.26 38.16Z" />
	<path id="Layer" class="shp4" d="M26.9 38.04C26.9 38.04 25.93 45.34 30.55 45.83C35.16 46.32 15.48 47.78 15.48 47.78C15.48 47.78 20.59 43.15 17.91 39.5C15.24 35.85 26.9 38.04 26.9 38.04Z" />
	<path id="Layer" class="shp5" d="M51.44 168.56L53.14 182.93C53.14 182.93 61.65 193.4 56.3 192.67C50.96 191.94 47.56 192.82 47.56 191.85C47.56 190.88 47.43 187.4 46.7 187.4C45.97 187.4 45.37 192.89 45.37 192.89C45.37 192.89 43.18 192.73 42.94 192.48C42.7 192.24 42.45 178.3 42.45 178.3C42.45 178.3 41.72 174.16 43.18 172.21C44.64 170.27 44.4 168.56 44.4 168.56L51.44 168.56Z" />
	<path id="Layer" class="shp5" d="M12.74 168.4L14.44 182.77C14.44 182.77 22.94 193.24 17.6 192.51C12.25 191.78 8.85 192.67 8.85 191.69C8.85 190.72 8.72 187.24 7.99 187.24C7.27 187.24 6.66 192.73 6.66 192.73C6.66 192.73 4.48 192.57 4.23 192.32C3.99 192.08 3.75 178.14 3.75 178.14C3.75 178.14 3.02 174 4.48 172.06C5.93 170.11 5.69 168.4 5.69 168.4L12.74 168.4Z" />
	<path id="Layer" class="shp5" d="M38.81 83.09C38.81 83.09 46.58 105.25 47.07 110.12C47.56 114.99 46.58 131.55 46.58 131.55C46.58 131.55 53.63 160.16 52.17 160.4C50.71 160.65 42.6 161.8 42.35 160.58C42.11 159.36 41.24 157.48 41.49 156.75C41.73 156.02 40.76 153.34 40.76 151.88C40.76 150.42 37.35 142.75 37.59 141.53C37.84 140.31 33.46 122.29 32.73 120.83C32.01 119.37 30.06 109.14 30.06 109.14C30.06 109.14 19.13 139.1 18.89 139.83C18.64 140.56 17.67 141.77 18.16 142.02C18.64 142.26 17.43 143.97 17.43 143.97C17.43 143.97 14.91 154.07 14.91 154.56C14.91 155.04 15.4 160.56 14.42 160.8C13.45 161.04 3.52 161.03 3.04 159.32C2.55 157.62 8.19 137.88 8.19 137.88C8.19 137.88 12.33 125.46 11.11 122.29C9.9 119.13 12.33 100.13 13.3 98.67C14.27 97.21 14.51 88.45 14.51 88.45L38.81 83.09Z" />
	<path id="Layer" class="shp4" d="M22.65 42.06C18.35 42.06 14.88 38.57 14.88 34.26C14.88 29.95 18.35 26.47 22.65 26.47C26.95 26.47 30.43 29.95 30.43 34.26C30.43 38.57 26.95 42.06 22.65 42.06Z" />
	<path id="Layer" class="shp2" d="M26.9 44.13C26.9 44.13 18.16 44.37 17.67 43.64C17.18 42.91 5.04 45.34 5.04 50.21C5.04 55.08 12.08 74.08 12.08 74.08C12.08 74.08 14.76 87.71 14.03 89.18C13.3 90.64 41 86.01 40.27 83.57C39.54 81.14 35.41 75.78 40.75 71.16C46.1 66.53 48.28 61.66 48.28 61.66L41.97 44.86C41.97 44.86 35.65 43.88 34.19 44.86C32.73 45.83 26.9 44.13 26.9 44.13Z" />
	<path id="Layer" class="shp2" d="M46.58 62.88L48.28 61.66C48.28 61.66 64.08 45.1 59.95 41.93C55.82 38.77 49.74 35.85 46.83 35.6C43.91 35.36 41.48 33.17 41.48 33.17C41.48 33.17 38.32 27.57 35.89 31.22C33.46 34.87 30.79 36.09 34.19 37.31C37.59 38.52 39.78 38.04 41.48 39.26C43.18 40.47 49.74 42.42 46.83 43.15C46.41 43.25 45.99 43.36 45.58 43.49C45.17 43.61 44.76 43.74 44.36 43.88C43.95 44.03 43.55 44.18 43.15 44.34C42.75 44.5 42.36 44.67 41.97 44.86L38.81 50.46L46.58 62.88Z" />
	<path id="Layer" class="shp4" d="M19.13 104.03C19.13 104.03 25.45 113.28 20.83 112.8C16.21 112.31 14.03 105.98 14.03 105.98L19.13 104.03Z" />
	<path id="Layer" class="shp2" d="M6.74 49L5.04 50.21C5.04 50.21 -0.55 80.9 5.04 88.93C10.62 96.97 11.11 96.48 11.11 96.48C11.11 96.48 12.08 95.75 12.57 100.62C13.05 105.49 12.33 107.44 13.78 107.44C15.24 107.44 21.8 105.98 21.32 104.76C20.83 103.54 17.67 96.48 17.43 94.78C17.18 93.07 15.97 89.18 15.48 86.98C15 84.79 17.67 83.57 16.46 78.95C15.24 74.32 13.54 66.04 13.54 64.34C13.54 62.63 6.74 49 6.74 49Z" />
	<path id="Layer" class="shp5" d="M15.12 27.32C15.12 29.95 18.71 32.07 23.14 32.07C27.57 32.07 31.64 33.48 31.64 30.85C31.64 28.23 27.57 22.57 23.14 22.57C18.71 22.57 15.12 24.7 15.12 27.32Z" />
	<path id="Layer" class="shp5" d="M34.73 39.8C34.73 39.8 35.05 48.63 26.3 48.14C17.55 47.66 27.48 40.6 27.48 40.6L34.73 39.8Z" />
	<path id="Layer" class="shp6" d="M0 192.11L237.47 192.11L237.47 192.87L0 192.87L0 192.11Z" />
</svg>